<?xml version="1.0" encoding="UTF-8" standalone="no"?>
<!-- Created with Inkscape (http://www.inkscape.org/) -->

<svg
   version="1.1"
   id="svg2"
   width="1122.52"
   height="793.70001"
   viewBox="0 0 1122.52 793.70001"
   sodipodi:docname="eredivisie_logo.svg"
   inkscape:version="1.4 (e7c3feb1, 2024-10-09)"
   xmlns:inkscape="http://www.inkscape.org/namespaces/inkscape"
   xmlns:sodipodi="http://sodipodi.sourceforge.net/DTD/sodipodi-0.dtd"
   xmlns="http://www.w3.org/2000/svg"
   xmlns:svg="http://www.w3.org/2000/svg">
  <defs
     id="defs6">
    <clipPath
       clipPathUnits="userSpaceOnUse"
       id="clipPath16">
      <path
         d="M 0,595.275 H 841.89 V 0 H 0 Z"
         id="path14" />
    </clipPath>
  </defs>
  <sodipodi:namedview
     id="namedview4"
     pagecolor="#ffffff"
     bordercolor="#000000"
     borderopacity="0.25"
     inkscape:showpageshadow="2"
     inkscape:pageopacity="0.0"
     inkscape:pagecheckerboard="0"
     inkscape:deskcolor="#d1d1d1"
     inkscape:zoom="0.9209921"
     inkscape:cx="462.00179"
     inkscape:cy="344.73694"
     inkscape:window-width="1920"
     inkscape:window-height="1080"
     inkscape:window-x="0"
     inkscape:window-y="0"
     inkscape:window-maximized="0"
     inkscape:current-layer="g8" />
  <g
     id="g8"
     inkscape:groupmode="layer"
     inkscape:label="eredivisie-2017-seeklogo"
     transform="matrix(1.3333333,0,0,-1.3333333,0,793.7)">
    <g
       id="g10"
       transform="matrix(1.5523967,0,0,1.8344932,-233.74991,-252.04132)">
      <g
         id="g12"
         clip-path="url(#clipPath16)">
        <g
           id="g18"
           transform="translate(345.0889,419.9883)">
          <path
             d="m 0,0 c 0,0 -22.979,-24.905 -22.979,-62.79 0,-55.463 45.507,-98.177 98.879,-98.177 38.157,0 62.613,22.281 62.613,22.281 l -15.914,15.922 c 0,0 -17.566,-16.584 -46.787,-16.584 -42.966,0 -75.463,36.256 -75.463,76.428 0,28.445 15.766,46.806 15.766,46.806 z"
             style="fill:#1c2a61;fill-opacity:1;fill-rule:nonzero;stroke:none"
             id="path20" />
        </g>
        <g
           id="g22"
           transform="translate(496.7153,294.2715)">
          <path
             d="m 0,0 c 0,0 22.979,24.905 22.979,62.789 0,55.464 -45.507,98.177 -98.879,98.177 -38.158,0 -62.613,-22.281 -62.613,-22.281 l 15.913,-15.921 c 0,0 17.567,16.583 46.788,16.583 42.965,0 75.462,-36.255 75.462,-76.427 0,-28.446 -15.764,-46.806 -15.764,-46.806 z"
             style="fill:#1c2a61;fill-opacity:1;fill-rule:nonzero;stroke:none"
             id="path24" />
        </g>
        <g
           id="g26"
           transform="translate(454.5005,310.3911)">
          <path
             d="m 0,0 c 0,0 -13.515,-10.517 -33.6,-10.517 -30.957,0 -58.004,25.019 -58.004,57.393 0,30.231 24.722,57.248 58.179,57.248 31.106,0 57.951,-24.885 57.951,-57.261 0,-4.167 -0.689,-9.046 -0.689,-9.046 H -37.741 L -56.186,56.25 H 0.647 c -2.853,13.051 -16.304,26.976 -33.979,26.976 -19.913,0 -35.782,-16.385 -35.782,-36.413 0,-19.046 14.892,-36.452 35.54,-36.452 11.653,0 18.106,5.235 18.106,5.235 z"
             style="fill:#1c2a61;fill-opacity:1;fill-rule:nonzero;stroke:none"
             id="path28" />
        </g>
        <g
           id="g30"
           transform="translate(183.4614,188.8428)">
          <path
             d="M 0,0 C 7.755,0 11.982,-5.133 12.734,-11.223 H -14.123 C -12.781,-4.106 -7.111,0 0,0 m 0.381,14.253 c -20.073,0 -31.938,-14.112 -31.938,-31.435 0,-17.293 12.27,-31.13 32.152,-31.13 14.648,0 25.465,7.899 28.619,18.824 H 10.987 c 0,0 -1.979,-4.51 -9.904,-4.51 -8.567,0 -13.279,4.503 -15.099,10.735 h 43.558 c 0,0 0.374,2.575 0.374,6.898 0,18.915 -13.04,30.618 -29.535,30.618"
             style="fill:#1c2a61;fill-opacity:1;fill-rule:nonzero;stroke:none"
             id="path32" />
        </g>
        <g
           id="g34"
           transform="translate(221.5493,141.9004)">
          <path
             d="m 0,0 v 59.938 h 17.334 v -6.851 c 4.67,4.158 10.428,7.829 21.07,7.829 V 44.436 C 21.645,44.007 17.334,37.947 17.334,31.007 V 0 Z"
             style="fill:#1c2a61;fill-opacity:1;fill-rule:nonzero;stroke:none"
             id="path36" />
        </g>
        <g
           id="g38"
           transform="translate(363.2861,188.2998)">
          <path
             d="m 0,0 c 7.154,0 11.286,-3.265 14.031,-6.844 v -19.288 c -1.927,-2.764 -6.147,-6.889 -13.97,-6.889 -9.13,0 -15.572,7.542 -15.572,16.572 C -15.511,-6.676 -8.431,0 0,0 M 14.031,42.475 V 10.003 c 0,0 -6.289,4.799 -16.885,4.799 -17.411,0 -29.931,-14.578 -29.931,-31.175 0,-17.468 13.066,-31.298 30.138,-31.298 10.368,0 16.678,4.754 16.678,4.754 v -3.479 h 17.335 v 88.871 z"
             style="fill:#1c2a61;fill-opacity:1;fill-rule:nonzero;stroke:none"
             id="path40" />
        </g>
        <path
           d="M 408.686,201.839 H 426.02 V 141.901 H 408.686 Z"
           style="fill:#1c2a61;fill-opacity:1;fill-rule:nonzero;stroke:none"
           id="path42" />
        <g
           id="g44"
           transform="translate(432.6226,201.8389)">
          <path
             d="M 0,0 H 18.312 L 33.593,-37.453 48.908,0 H 67.297 L 41.378,-59.938 H 25.86 Z"
             style="fill:#1c2a61;fill-opacity:1;fill-rule:nonzero;stroke:none"
             id="path46" />
        </g>
        <path
           d="m 507.309,201.839 h 17.335 v -59.938 h -17.335 z"
           style="fill:#1c2a61;fill-opacity:1;fill-rule:nonzero;stroke:none"
           id="path48" />
        <path
           d="m 601.566,201.839 h 17.335 v -59.938 h -17.335 z"
           style="fill:#1c2a61;fill-opacity:1;fill-rule:nonzero;stroke:none"
           id="path50" />
        <g
           id="g52"
           transform="translate(293.5161,188.8428)">
          <path
             d="M 0,0 C 7.754,0 11.983,-5.133 12.734,-11.223 H -14.123 C -12.782,-4.106 -7.111,0 0,0 m 0.381,14.253 c -20.073,0 -31.937,-14.112 -31.937,-31.435 0,-17.293 12.269,-31.13 32.151,-31.13 14.648,0 25.465,7.899 28.619,18.824 H 10.987 c 0,0 -1.979,-4.51 -9.904,-4.51 -8.568,0 -13.279,4.503 -15.099,10.735 h 43.558 c 0,0 0.374,2.575 0.374,6.898 0,18.915 -13.041,30.618 -29.535,30.618"
             style="fill:#1c2a61;fill-opacity:1;fill-rule:nonzero;stroke:none"
             id="path54" />
        </g>
        <g
           id="g56"
           transform="translate(660.0688,188.8428)">
          <path
             d="M 0,0 C 7.755,0 11.982,-5.133 12.734,-11.223 H -14.122 C -12.781,-4.106 -7.111,0 0,0 m 0.382,14.253 c -20.073,0 -31.939,-14.112 -31.939,-31.435 0,-17.293 12.271,-31.13 32.153,-31.13 14.647,0 25.464,7.899 28.618,18.824 H 10.987 c 0,0 -1.979,-4.51 -9.903,-4.51 -8.568,0 -13.279,4.503 -15.1,10.735 h 43.559 c 0,0 0.373,2.575 0.373,6.898 0,18.915 -13.04,30.618 -29.534,30.618"
             style="fill:#1c2a61;fill-opacity:1;fill-rule:nonzero;stroke:none"
             id="path58" />
        </g>
        <g
           id="g60"
           transform="translate(535.2827,162.6533)">
          <path
             d="m 0,0 c 1.083,-15.655 12.436,-22.615 28.238,-22.615 16.681,0 26.994,7.527 26.994,20.31 0,13.924 -12.314,16.556 -21.504,18.152 -6.454,0.972 -14.665,1.255 -14.665,6.772 0,3.003 2.942,5.145 8.906,5.145 6.54,0 10.809,-2.784 11.008,-7.48 l 15.888,0.097 C 54.25,31.878 45.32,40.797 27.867,40.797 11.968,40.797 2.154,32.993 2.154,21.092 2.154,9.453 10.486,5.248 19.121,3.401 l 8.43,-1.431 c 5.375,-0.825 10.97,-1.591 10.97,-5.833 0,-2.606 -3.17,-5.155 -10.192,-5.155 -7.369,0 -11.595,2.951 -12.459,8.875 z"
             style="fill:#1c2a61;fill-opacity:1;fill-rule:nonzero;stroke:none"
             id="path62" />
        </g>
      </g>
    </g>
  </g>
</svg>
