<?xml version="1.0" encoding="UTF-8" standalone="no"?>
<!-- Created with Inkscape (http://www.inkscape.org/) -->

<svg
   version="1.1"
   id="svg2"
   width="266.66666"
   height="380"
   viewBox="0 0 266.66666 380"
   sodipodi:docname="la-liga-seeklogo.eps"
   xmlns:inkscape="http://www.inkscape.org/namespaces/inkscape"
   xmlns:sodipodi="http://sodipodi.sourceforge.net/DTD/sodipodi-0.dtd"
   xmlns="http://www.w3.org/2000/svg"
   xmlns:svg="http://www.w3.org/2000/svg">
  <defs
     id="defs6" />
  <sodipodi:namedview
     id="namedview4"
     pagecolor="#ffffff"
     bordercolor="#000000"
     borderopacity="0.25"
     inkscape:showpageshadow="2"
     inkscape:pageopacity="0.0"
     inkscape:pagecheckerboard="0"
     inkscape:deskcolor="#d1d1d1" />
  <g
     id="g8"
     inkscape:groupmode="layer"
     inkscape:label="ink_ext_XXXXXX"
     transform="matrix(1.3333333,0,0,-1.3333333,0,380)">
    <g
       id="g10"
       transform="scale(0.1)">
      <path
         d="M 252.363,83.457 H 1746.54 c 95.34,0 173.6,78.254 173.6,173.602 V 1848.62 c 0,506.23 -414.46,920.68 -920.691,920.68 -506.226,0 -920.6873,-414.45 -920.6873,-920.68 V 257.059 c 0,-95.348 78.2583,-173.602 173.6013,-173.602"
         style="fill:#ffffff;fill-opacity:1;fill-rule:evenodd;stroke:none"
         id="path12" />
      <path
         d="M 252.363,133.059 H 1746.54 c 67.96,0 124,56.035 124,124 V 1848.62 c 0,478.85 -392.25,871.08 -871.091,871.08 -478.844,0 -871.086,-392.23 -871.086,-871.08 V 257.059 c 0,-67.965 56.035,-124 124,-124"
         style="fill:#ffffff;fill-opacity:1;fill-rule:evenodd;stroke:none"
         id="path14" />
      <path
         d="M 252.363,143.992 H 1746.54 c 30.96,0 59.23,12.785 79.75,33.309 h 0.04 c 20.49,20.484 33.27,48.758 33.27,79.758 V 1848.62 c 0,236.42 -96.85,451.47 -252.76,607.38 -155.94,155.93 -370.98,252.76 -607.391,252.76 -236.41,0 -451.453,-96.83 -607.386,-252.76 C 236.145,2300.09 139.297,2085.04 139.297,1848.62 V 257.059 c 0,-31 12.785,-59.274 33.273,-79.758 l 0.035,-0.039 c 20.485,-20.485 48.758,-33.27 79.758,-33.27 z M 1746.54,122.121 H 252.363 c -36.941,0 -70.679,15.25 -95.172,39.731 l -0.011,0.023 -0.028,0.012 c -24.476,24.468 -39.73,58.23 -39.73,95.172 V 1848.62 c 0,242.43 99.301,462.95 259.191,622.83 159.887,159.89 380.41,259.19 622.836,259.19 242.431,0 462.951,-99.3 622.841,-259.19 159.89,-159.88 259.18,-380.4 259.18,-622.83 V 257.059 c 0,-36.954 -15.26,-70.704 -39.75,-95.184 l 0.02,-0.023 c -24.47,-24.481 -58.23,-39.731 -95.2,-39.731"
         style="fill:#acb1af;fill-opacity:1;fill-rule:nonzero;stroke:none"
         id="path16" />
      <path
         d="m 999.449,2769.3 c 506.231,0 920.691,-414.45 920.691,-920.68 V 257.059 c 0,-95.348 -78.26,-173.602 -173.6,-173.602 H 252.363 c -95.343,0 -173.6013,78.254 -173.6013,173.602 V 1848.62 c 0,506.23 414.4613,920.68 920.6873,920.68 z M 252.363,9.05469 H 1746.54 c 136.4,0 248,111.59031 248,248.00431 V 1848.62 c 0,547.28 -447.78,995.08 -995.091,995.08 C 452.141,2843.7 4.35938,2395.9 4.35938,1848.62 V 257.059 C 4.35938,120.645 115.961,9.05469 252.363,9.05469"
         style="fill:#acb1af;fill-opacity:1;fill-rule:evenodd;stroke:none"
         id="path18" />
      <path
         d="M 955.363,1902.59 C 826.18,1886.07 715.496,1771.55 733.152,1621.27 748.367,1491.8 865.91,1381.94 1014.38,1398.95 c 129.35,14.81 238.73,131.21 222.72,281.29 -13.67,128.12 -134.02,241.24 -281.737,222.35"
         style="fill:#010101;fill-opacity:1;fill-rule:evenodd;stroke:none"
         id="path20" />
      <path
         d="m 258.367,1763.46 c 0.008,-89.39 16.043,-186.37 49.34,-257.68 18.949,-0.46 125.875,44.92 151.481,54.75 26.46,10.15 137.121,49.51 148.917,59.79 -0.613,13.92 -15.625,52.31 -19.613,73.81 -10.355,55.75 -6.578,114.18 10.66,168.08 5.477,17.12 26.821,60.47 26.942,70.43 -10.36,11.08 -116.321,64.02 -138.641,76.33 -22.547,12.44 -128.906,73.4 -145.691,72.97 -26.41,-58.32 -38.348,-70.87 -58.145,-142.22 -15.539,-56.01 -25.258,-114.68 -25.25,-176.26"
         style="fill:#004ad1;fill-opacity:1;fill-rule:evenodd;stroke:none"
         id="path22" />
      <path
         d="m 456.387,2084.61 c 9.566,-10.1 178.883,-106.45 205.82,-121.7 15.606,-8.84 56.246,-37.14 74.16,-36.82 23.949,60.51 104.832,125.68 167.766,152.92 20.297,8.79 70.605,19.27 82.59,26.09 1.59,20.29 -16.188,98.42 -20.946,124.12 l -35.027,185.99 c -7.312,12.28 -44.516,-1.69 -59.211,-5.41 -135.773,-34.41 -272.793,-121.87 -358,-232.61 -11.273,-14.65 -56.836,-72.69 -57.152,-92.58"
         style="fill:#980184;fill-opacity:1;fill-rule:evenodd;stroke:none"
         id="path24" />
      <path
         d="m 244.777,1420.36 c 1.668,-30.58 55.321,-113.04 70.528,-134.06 58.843,-81.39 127.562,-144.66 214.922,-195.14 20.574,-11.89 121.461,-63.15 146.312,-57.61 7.805,13.95 18.957,55.74 24.234,73.31 12.719,42.35 70.075,213.86 69.024,232.95 -84.125,30.95 -140.137,63.81 -190.883,135.52 -16.086,22.73 -24.629,44.69 -38.441,69.87 -18.387,0.6 -124.91,-49.87 -148.934,-60.33 l -146.762,-64.51"
         style="fill:#0091fc;fill-opacity:1;fill-rule:evenodd;stroke:none"
         id="path26" />
      <path
         d="m 1429.23,1545.05 c 10.59,-4.34 315.06,-21.14 321.21,-13.85 10.31,26.92 -3.64,139.19 -9.99,171.03 -19.88,99.71 -57.87,183.93 -114.58,263.74 -17.73,24.96 -69.62,88.78 -90.72,99.65 -13.36,-4.48 -88.37,-87.63 -106.16,-107.14 -8.47,-9.28 -17.35,-16.43 -25.8,-25.75 l -52.96,-55.99 c -9.32,-10.25 -16.55,-18.69 -26.02,-28.56 -21.6,-22.47 -5.46,-15.96 28.12,-58.23 15.61,-19.67 28.58,-40.4 40.9,-65.17 40,-80.49 28.19,-111.22 36,-179.73"
         style="fill:#fe7d02;fill-opacity:1;fill-rule:evenodd;stroke:none"
         id="path28" />
      <path
         d="m 783.434,1238.48 c -7.204,-12.89 -85.27,-295.585 -84.403,-308.648 28.418,-19.738 150.199,-29.129 193.821,-29.129 72.707,0 150.308,14.613 212.828,36.25 38.13,13.199 150.34,62.754 163.87,86.727 -3.65,12.39 -172.08,263.52 -178.85,264.57 -9.55,-2.29 -45.79,-25.68 -62.29,-33.1 -124.07,-55.76 -200.555,-16.53 -244.976,-16.67"
         style="fill:#01ab02;fill-opacity:1;fill-rule:evenodd;stroke:none"
         id="path30" />
      <path
         d="m 998.594,2334.07 c -2.313,-13.9 38.896,-294.78 45.136,-316.2 50.15,-4.19 86.22,15.58 174.7,-14.84 37.18,-12.78 66.3,-28.26 96.11,-50.15 40.59,-29.81 19.27,-35.22 84.46,38.53 l 104.16,119.43 c 10.78,13.5 45.5,48.98 49.98,62.66 -10.33,18.66 -79.46,64.55 -104.89,79.4 -83.46,48.7 -177.62,80.65 -277.2,89.85 -33.35,3.09 -148.65,7.02 -172.456,-8.68"
         style="fill:#fe0000;fill-opacity:1;fill-rule:evenodd;stroke:none"
         id="path32" />
      <path
         d="m 1183.69,1233 c 2.42,-13.18 182.51,-256.187 188.02,-257.535 20.33,2.703 91.06,72.595 106.14,88.275 60.24,62.65 116.03,157.87 144.86,245.24 10.31,31.21 35.25,128.59 32.36,162.23 -1.39,16.21 -16.74,12.72 -33.84,13.88 l -272.8,21.48 c -40.57,0.96 8.59,-47.64 -71.14,-173.4 -43.68,-68.9 -74.65,-75.59 -93.6,-100.17"
         style="fill:#ffe500;fill-opacity:1;fill-rule:evenodd;stroke:none"
         id="path34" />
      <path
         d="m 795.82,1784.77 23.035,11.56 c -7.253,-29.92 -15.3,-39.63 -12.667,-75.88 15.343,-13.58 44.171,-19.11 61.082,-31.26 l -66.02,12.18 c -21.418,-24.96 -24.391,-36.07 -35.691,-71.57 l -12.375,22.74 c -3.157,-49.85 19.597,-112.62 44.851,-138.7 l -3.066,23.85 c 21.168,-12.3 39.523,-32.49 72.84,-35.82 l 44.914,49.34 -32.446,-59.89 c 10.633,-21.12 35.024,-45.28 56.192,-54.28 -0.664,-0.46 -1.766,-0.16 -2.153,-1.13 -0.394,-0.97 -1.644,-0.86 -2.187,-1.07 -3.281,-1.25 -3.024,-1.27 -6.82,-2.3 -4.313,-1.19 -8.145,-1.47 -13.633,-3.11 70.09,-15.05 75.035,-14.2 145.344,-0.86 l -23.64,6.62 c 96.52,60.16 35.68,74.25 23.85,117.45 3.62,-5.14 16.93,-18.47 22.07,-24.29 6.65,-7.55 19.21,-20.29 25.74,-26.21 34.87,4.37 54.53,27.49 69.69,34.69 l -2.8,-24.38 c 25.05,37.68 47.33,77.57 45.75,137.12 -0.55,-0.55 -1.29,-0.7 -1.53,-1.8 l -5.27,-7.4 c -2.39,-3.71 -4.48,-7.57 -6.65,-10.26 -16.03,55.91 -14.88,36.52 -32.98,70.53 l -67.28,-11.98 60.15,29.84 c 2.89,33.77 -4.65,49.97 -13.09,77.27 l 22.5,-9.96 c -11.49,27.82 -74.44,77.11 -118.33,86.41 l 17.51,-18.92 c -85.769,-4.51 -77.882,-1.87 -82.522,-44.05 -1.375,-12.48 -2.817,-24.05 -4.051,-36.62 l -7.348,50.85 c -0.332,3.06 -0.687,7.18 -1.394,9.9 0,0 2.035,23.85 -79.516,19.08 4.965,10.45 10.129,12.29 17.676,19.76 -45.367,-8.08 -105.614,-59.37 -119.735,-87.45 z m 87.657,-98.3 38.296,-122.84 c 136.387,1.19 123.117,-11.57 134.787,24.55 l 30.47,97.08 -102.421,72.53 c -13.695,-7.08 -36.023,-25.58 -50.117,-35.94 -11.027,-8.11 -39.906,-30.73 -51.015,-35.38"
         style="fill:#ffffff;fill-opacity:1;fill-rule:evenodd;stroke:none"
         id="path36" />
      <path
         d="m 1344.21,429.047 c 0.55,-34.609 -4.01,-50.043 -33.69,-58.176 -38.65,-10.601 -50.34,3.617 -64.98,18.535 l -91.49,0.703 c 10.93,-100.136 166.77,-121.632 236.37,-58.964 36.99,33.316 36.21,84.789 36.21,147.73 0,61.52 0,123.039 0,184.559 l -78.93,0.168 -0.24,-28.286 c -14.2,11.856 -28.89,25.672 -54.58,31.161 -140.36,29.984 -196.28,-174.938 -88.36,-248.727 62.94,-43.039 115.05,0.129 139.69,11.297 z m 244.74,160.078 c -75.08,-24.332 -46.2,-155.059 40.38,-126.969 79.36,25.75 45.28,154.739 -40.38,126.969 z m -323.25,5.289 c -67.76,-25.051 -38.23,-154.543 44.84,-120.269 69.27,28.582 36.42,150.304 -44.84,120.269 z m -679.809,-5.59 c -77.692,-27.16 -42.938,-154.902 42.285,-126.25 77.597,26.094 42.554,155.906 -42.285,126.25 z m 1083.949,-173.398 0.88,-24.367 81.86,-0.371 0.78,272.914 -81.63,-0.008 -0.1,-25.867 c -12.67,5.589 -25.06,25.527 -61.94,30.32 -77.94,10.129 -146.43,-53.02 -147.8,-140.41 -1.46,-93.867 61.69,-151.828 141.27,-142.602 35.59,4.125 45.97,17.453 66.68,30.391 z m -1002.145,-0.961 0.243,-22.684 81.5,-1.144 0.98,272.906 -81.484,-0.004 -0.297,-26.078 c -18.942,12.793 -30.371,26.769 -62.524,30.699 -77.605,9.485 -144.343,-54.648 -146.871,-137.558 -2.828,-92.735 56.328,-153.125 138.207,-145.809 35.883,3.207 46.563,17.344 70.246,29.672 z m 131.102,-23.332 194.492,-0.422 1.07,77.527 -106.234,0.032 -0.777,262.734 -88.356,0.051 z m -463.215,339.914 -83.672,-0.234 -0.695,-339.278 192.637,-0.019 0.011,74.769 -106.66,0.27 z m 695.348,-339.973 11.02,-0.418 60.22,0.074 10.48,0.176 0.66,272.199 -82.42,0.422 z m 29.85,390.629 c -63.413,-16.308 -40.87,-114.25 24.63,-96.672 63,16.907 38.03,112.785 -24.63,96.672 z m -725.198,-50.656 1.621,-264.492 106.66,-0.27 -0.011,-74.769 -192.637,0.019 0.695,339.278 c -5.75,-3.61 -3.672,-7.415 -3.644,-16.688 0.218,-83.945 -3.485,-264.508 0.636,-323.012 13.618,-5.25 175.172,-4.394 196.953,-1.472 2.118,16.578 4.368,65.722 -1.91,79.019 l -104.687,0.473 -0.301,256.105 c -1.789,7 0.113,1.532 -3.375,5.809"
         style="fill:#010101;fill-opacity:1;fill-rule:evenodd;stroke:none"
         id="path38" />
    </g>
  </g>
</svg>
