<?xml version="1.0" encoding="UTF-8" standalone="no"?>
<!-- Created with Inkscape (http://www.inkscape.org/) -->

<svg
   version="1.1"
   id="svg2"
   width="182.17332"
   height="182.36"
   viewBox="0 0 182.17332 182.36"
   sodipodi:docname="premier-league-new-seeklogo.eps"
   xmlns:inkscape="http://www.inkscape.org/namespaces/inkscape"
   xmlns:sodipodi="http://sodipodi.sourceforge.net/DTD/sodipodi-0.dtd"
   xmlns="http://www.w3.org/2000/svg"
   xmlns:svg="http://www.w3.org/2000/svg">
  <defs
     id="defs6" />
  <sodipodi:namedview
     id="namedview4"
     pagecolor="#ffffff"
     bordercolor="#000000"
     borderopacity="0.25"
     inkscape:showpageshadow="2"
     inkscape:pageopacity="0.0"
     inkscape:pagecheckerboard="0"
     inkscape:deskcolor="#d1d1d1" />
  <g
     id="g8"
     inkscape:groupmode="layer"
     inkscape:label="ink_ext_XXXXXX"
     transform="matrix(1.3333333,0,0,-1.3333333,0,182.36)">
    <g
       id="g10"
       transform="scale(0.1)">
      <path
         d="m 371.688,1280.95 c -6.239,-2.89 -9.797,-4.12 -12.918,-6.05 C 297.82,1237.23 243.242,1191.94 196.863,1137.24 112.551,1037.8 64.25,922.883 53.3281,793.051 45.7266,702.652 46.6563,612.453 70.418,523.84 178.129,122.191 627.992,-69.0781 992.129,132.012 c 3.523,1.937 7.195,3.617 13.181,6.617 -4.31,-18.707 -7.966,-34.547 -12.244,-53.1095 6.657,3.0508 10.354,4.2618 13.544,6.2696 105.53,66.4609 189.83,152.8199 244.66,265.6719 72.71,149.641 83.27,307.687 48.61,467.219 -89.21,410.55 -551.677,618.68 -920.607,417.15 -5.269,-2.88 -10.636,-5.57 -18.796,-9.84 4.093,17.87 7.32,31.97 11.211,48.96 z m 311.445,86.8 C 1059.48,1368.1 1365.76,1061.24 1366.31,683.262 1366.87,305.73 1059.62,0.230469 679.145,0 306.035,-0.21875 0.0546875,307.73 0,683.508 -0.0546875,1061.12 305.727,1367.4 683.133,1367.75"
         style="fill:#31204f;fill-opacity:1;fill-rule:nonzero;stroke:none"
         id="path12" />
      <path
         d="m 372.676,1280.95 c -3.891,-16.99 -7.117,-31.09 -11.211,-48.96 8.16,4.27 13.527,6.96 18.797,9.84 368.929,201.53 831.398,-6.6 920.598,-417.15 34.67,-159.532 24.11,-317.578 -48.6,-467.219 C 1197.43,244.609 1113.13,158.25 1007.6,91.7891 c -3.2,-2.0078 -6.89,-3.2188 -13.545,-6.2696 4.277,18.5625 7.925,34.4025 12.245,53.1095 -5.99,-3 -9.659,-4.68 -13.183,-6.617 C 628.98,-69.0781 179.113,122.191 71.4063,523.84 47.6445,612.453 46.7148,702.652 54.3203,793.051 65.2383,922.883 113.539,1037.8 197.852,1137.24 c 46.378,54.7 100.957,99.99 161.906,137.66 3.121,1.93 6.68,3.16 12.918,6.05"
         style="fill:#ffffff;fill-opacity:1;fill-rule:nonzero;stroke:none"
         id="path14" />
      <path
         d="m 923.691,776.746 c -10.785,-7.43 -19.488,-13.039 -27.695,-19.293 -2.816,-2.148 -5.547,-5.633 -6.367,-8.984 -9.473,-38.676 13.883,-63.821 37.723,-91.235 16.976,41.27 11.761,79.493 -3.661,119.512 z M 775.168,605.461 c 4.445,-8.539 11.02,-19.93 16.371,-31.867 3.926,-8.75 9.07,-10.719 17.34,-6.574 15.133,7.585 30.32,15.054 47.269,23.457 2.008,-15.907 3.997,-31.649 6.028,-47.739 2.207,0.469 3.887,0.34 4.871,1.106 22.879,17.832 37.617,41.902 39.57,69.914 0.906,13.008 -8.191,31.805 -18.828,38.976 -9.035,6.094 -28.684,3.106 -40.289,-2.629 -24.73,-12.214 -47.285,-28.824 -72.332,-44.644 z m -63.633,119.488 c 11.965,-22.582 23.836,-43.57 34.246,-65.258 5.121,-10.668 11.719,-12.929 22.364,-10.343 35.253,8.57 62.359,30.754 89.535,52.875 1.406,1.144 2.91,3.203 2.929,4.855 0.176,14.774 2.141,30.027 -1.043,44.098 -1.32,5.832 -13.871,9.105 -21.285,13.59 -4.64,2.804 -8.902,6.777 -13.922,8.281 -6.992,2.101 -15.195,4.828 -21.722,3.043 -33.867,-9.258 -62.223,-28.844 -91.102,-51.141 z m 110.844,-410.73 c -4.664,16.883 -8.664,31.359 -11.875,42.98 -33.656,-13.84 -65.024,-29.82 -98.211,-39.699 -59.613,-17.738 -118.91,-13.98 -176.418,11.789 -12.211,5.473 -15.395,11.68 -12.613,24.77 12.211,57.5 16.687,115.293 2,173.191 -0.848,3.348 -1.774,6.68 -2.895,9.941 -0.426,1.243 -1.508,2.258 -3.887,5.668 -30.457,-43.644 -61.746,-85.16 -105.343,-119.132 -34.11,74.308 -33.973,150.296 -24.289,229.679 -20.793,-6.125 -40.168,-11.832 -62.047,-18.277 7.84,69.551 34.027,129.066 74.945,185.07 -13.109,2.582 -24.391,4.805 -37.387,7.364 26.114,52.929 61.899,96.23 110.746,133.496 -8.242,-38.075 -6.273,-70.137 27.379,-92.5 -2.617,11.195 -6.019,22.285 -7.601,33.629 -1.203,8.628 -1.356,17.812 0.215,26.343 5.851,31.824 29.382,45.43 60.273,35.567 5.844,-1.868 11.512,-4.285 20.492,-7.668 -8.668,22.304 -24.343,31.437 -41.808,38.691 -0.196,1.586 -0.391,3.172 -0.586,4.758 28.898,9.051 57.34,20.221 86.828,26.511 26.344,5.63 53.84,5.81 80.816,8.52 25.641,2.57 46.047,-7.49 63.367,-25.58 5.961,-6.22 12.418,-11.982 18.649,-17.955 1.285,0.625 2.57,1.25 3.855,1.875 -2.058,9.68 -4.121,19.36 -6.464,30.39 3.214,-0.3 6.386,-0.15 9.293,-0.95 31.187,-8.65 60.542,-21.19 85.984,-41.67 4.164,-3.356 9.625,-6.985 11.043,-11.551 6.336,-20.461 11.426,-41.313 16.519,-60.352 -29.058,20.18 -59.164,41.082 -90.867,63.098 -4.918,-15.481 -8.39,-26.422 -12.137,-38.211 -22.503,13.699 -42.605,27.086 -63.863,38.285 -7.898,4.16 -18.918,5.656 -27.793,4.137 -35.484,-6.074 -68.23,-19.281 -98.078,-43.985 5.402,-3.851 10.477,-7.472 17.883,-12.753 -22.281,-11.051 -41.094,-21.055 -56.422,-43.051 26.371,4.203 29.367,-12.774 36.91,-28.282 12.606,-25.91 36.446,-38.906 64.91,-39.949 34.832,-1.277 69.75,-0.304 106.082,-0.304 -10.296,10.554 -22.054,21.828 -32.89,33.921 -12.25,13.672 -27.047,18.54 -45.028,17.012 -25.461,-2.156 -48.789,3.922 -69.203,20.024 27.918,33.308 54,34.129 110.496,4.207 9.325,4.785 18.313,9.402 27.282,14.007 1.312,-2.523 2.285,-3.578 2.054,-4.066 -11.972,-25.305 -11.797,-25.113 8.012,-45.41 12.027,-12.324 23.363,-25.32 34.16,-37.086 15.231,2.648 30.098,6.73 45.117,7.426 15,0.691 30.157,-2.016 46.637,-3.34 -22.402,23.539 -44.051,46.285 -65.699,69.031 1.48,1.848 2.961,3.695 4.441,5.547 8.145,-4.66 16.289,-9.32 24.985,-14.297 9.765,1.981 16.097,21.813 30.105,8.406 10.422,-9.976 9.477,-20.343 -1.051,-32.586 8.235,-8.71 16.516,-17.468 26.461,-27.992 2.16,6.574 3.434,10.442 4.653,14.157 1.504,-0.133 2.879,0.136 3.211,-0.336 72.133,-102.075 92.543,-212.289 52.461,-334.93 -10.083,10.605 -18.622,19.586 -29.743,31.289 C 949.453,486.23 937.738,444.895 914.48,407.59 891.145,370.168 860.992,339.641 822.379,314.219"
         style="fill:#31204f;fill-opacity:1;fill-rule:nonzero;stroke:none"
         id="path16" />
      <path
         d="m 761.926,1172.86 c 2.347,-30.17 4.324,-55.5 6.621,-85.02 17.07,18.68 31.398,34.35 45.726,50.03 1.082,-1.07 2.168,-2.14 3.25,-3.2 -6.441,-29.46 -12.882,-58.92 -19.566,-89.49 -100.191,24.88 -196.473,14.37 -287.707,-35.39 -13.449,28.6 -26.559,56.49 -41.961,89.26 21.164,-13.28 39.168,-24.57 59.84,-37.54 -4.277,28.2 -8.145,53.68 -12.649,83.35 31.657,-21.79 60.196,-41.44 90.489,-62.29 10.394,30.02 20.168,58.24 31.25,90.25 17.59,-28.02 33.578,-53.49 50.863,-81.03 24.578,26.99 47.856,52.54 73.844,81.07"
         style="fill:#31204f;fill-opacity:1;fill-rule:nonzero;stroke:none"
         id="path18" />
      <path
         d="m 145.223,498.922 c -2.289,5.812 -3.864,9.82 -6.016,15.293 18.637,7.691 36.695,15.144 56.613,23.363 6.25,-16.387 12.157,-31.883 19.227,-50.422 2.582,-5.726 9.234,-14.34 9.867,-23.379 0.891,-12.648 -10.644,-17.457 -21.125,-21.464 -9.605,-3.676 -19.062,-7.735 -29.828,-12.129 -2.238,5.109 -4.098,9.355 -6.617,15.101 11.449,4.742 22.25,8.238 31.941,13.707 3.981,2.246 5.555,8.746 8.227,13.313 -5.324,1.672 -11.188,5.644 -15.852,4.539 -10.402,-2.461 -20.203,-7.457 -31.527,-11.922 -2.215,4.461 -4.258,8.582 -7.067,14.238 11.27,4.887 22.004,8.449 31.465,14.141 4.164,2.504 5.723,9.336 8.465,14.203 -5.457,1.363 -11.449,4.863 -16.262,3.656 -10.332,-2.594 -20.054,-7.613 -31.511,-12.238"
         style="fill:#31204f;fill-opacity:1;fill-rule:nonzero;stroke:none"
         id="path20" />
      <path
         d="m 359.945,339.059 c 4.922,-4.028 8.657,-7.079 13.762,-11.25 -15.926,-19.93 -31.445,-39.34 -48.129,-60.219 9.86,-8.219 19.492,-16.25 30.41,-25.36 -3.211,-4.171 -6.308,-8.179 -10.156,-13.171 -15.187,12.273 -29.566,23.89 -45.102,36.441 19.887,24.711 38.907,48.332 59.215,73.559"
         style="fill:#31204f;fill-opacity:1;fill-rule:nonzero;stroke:none"
         id="path22" />
      <path
         d="m 626.422,183.898 c 12.207,2.313 16.824,-1.57 14.484,-13.136 -1.367,-6.762 -1.871,-13.703 -3,-20.512 -3.031,-18.352 -15.879,-28.559 -32.968,-26.371 -18.313,2.359 -28.04,13.812 -26.684,32.519 0.809,11.231 2.762,22.372 4.375,34.891 5.719,-0.93 10.305,-1.668 16.098,-2.609 -1.532,-11.399 -4.387,-21.668 -3.684,-31.692 0.398,-5.718 5.422,-13.699 10.457,-15.929 8.105,-3.579 13.957,2.66 15.629,11.043 2.105,10.539 3.559,21.207 5.293,31.796"
         style="fill:#31204f;fill-opacity:1;fill-rule:nonzero;stroke:none"
         id="path24" />
      <path
         d="m 167.797,607.496 c -8.524,32.543 -32.453,11.024 -50.262,17.449 -0.453,3.012 -1.137,7.532 -2.066,13.692 20.793,2.476 40.531,4.824 60.258,7.176 1.597,-12.661 2.961,-23.446 4.476,-35.426 -3.137,-0.735 -7.223,-1.684 -12.406,-2.891"
         style="fill:#31204f;fill-opacity:1;fill-rule:nonzero;stroke:none"
         id="path26" />
      <path
         d="m 250.621,317.789 c -2.68,3.352 -5.359,6.711 -8.965,11.211 15.356,13.48 30.102,26.43 44.852,39.379 8.047,-8.938 15.824,-17.59 25.062,-27.848 -2.437,-2.133 -5.613,-4.922 -9.457,-8.293 -24.937,23.153 -32.898,-9.16 -51.492,-14.449"
         style="fill:#31204f;fill-opacity:1;fill-rule:nonzero;stroke:none"
         id="path28" />
      <path
         d="m 190.887,402.387 c -2.828,4.789 -5.203,8.808 -8.465,14.328 18.172,10.262 35.441,20.015 53.543,30.238 2.918,-4.879 5.348,-8.937 8.527,-14.25 -18.023,-10.191 -35.301,-19.965 -53.605,-30.316"
         style="fill:#31204f;fill-opacity:1;fill-rule:nonzero;stroke:none"
         id="path30" />
      <path
         d="m 257.535,464.035 c 4.742,-7.125 9.727,-11.324 9.262,-14.801 -0.504,-3.773 -6.07,-6.871 -9.43,-10.265 -3.418,3.441 -9.062,6.578 -9.59,10.414 -0.468,3.398 4.758,7.578 9.758,14.652"
         style="fill:#31204f;fill-opacity:1;fill-rule:nonzero;stroke:none"
         id="path32" />
      <path
         d="m 711.535,724.949 c 28.879,22.297 57.235,41.883 91.102,51.141 6.527,1.785 14.73,-0.942 21.722,-3.043 5.02,-1.504 9.282,-5.477 13.922,-8.281 7.414,-4.485 19.965,-7.758 21.285,-13.59 3.184,-14.071 1.219,-29.324 1.043,-44.098 -0.019,-1.652 -1.523,-3.711 -2.929,-4.855 -27.176,-22.121 -54.282,-44.305 -89.535,-52.875 -10.645,-2.586 -17.243,-0.325 -22.364,10.343 -10.41,21.688 -22.281,42.676 -34.246,65.258"
         style="fill:#ffffff;fill-opacity:1;fill-rule:nonzero;stroke:none"
         id="path34" />
      <path
         d="m 775.168,605.461 c 25.047,15.82 47.602,32.43 72.332,44.644 11.605,5.735 31.254,8.723 40.289,2.629 10.637,-7.171 19.734,-25.968 18.828,-38.976 -1.953,-28.012 -16.691,-52.082 -39.57,-69.914 -0.984,-0.766 -2.664,-0.637 -4.871,-1.106 -2.031,16.09 -4.02,31.832 -6.028,47.739 -16.949,-8.403 -32.136,-15.872 -47.269,-23.457 -8.27,-4.145 -13.414,-2.176 -17.34,6.574 -5.351,11.937 -11.926,23.328 -16.371,31.867"
         style="fill:#ffffff;fill-opacity:1;fill-rule:nonzero;stroke:none"
         id="path36" />
      <path
         d="m 923.691,776.746 c 15.422,-40.019 20.637,-78.242 3.661,-119.512 -23.84,27.414 -47.196,52.559 -37.723,91.235 0.82,3.351 3.551,6.836 6.367,8.984 8.207,6.254 16.91,11.863 27.695,19.293"
         style="fill:#ffffff;fill-opacity:1;fill-rule:nonzero;stroke:none"
         id="path38" />
      <path
         d="m 553.418,167.77 c -6.695,-4.059 -13.098,-10.79 -20.152,-11.559 -10.282,-1.129 -15.743,7.16 -15.09,17.301 0.621,9.629 7.246,16.547 16.453,14.508 7.012,-1.551 12.816,-8.559 19.156,-13.141 -0.121,-2.367 -0.246,-4.738 -0.367,-7.109 z m -1.617,29.242 c -12.422,9.699 -24.414,9.636 -36.903,2.297 -12.238,-7.188 -17.281,-23.27 -12.918,-37.77 3.903,-12.937 15.403,-20.867 30.45,-20.969 2.617,-0.019 5.234,-0.011 8.461,-0.011 -8.188,-17.411 -17.77,-17.231 -39.75,-0.047 -3.09,-2.633 -6.317,-5.364 -10.219,-8.684 19,-25.738 53.051,-27.656 63.055,-3.859 8.64,20.562 13.339,42.781 20.078,65.261 -9.075,1.34 -17.575,0.122 -22.254,3.782"
         style="fill:#31204f;fill-opacity:1;fill-rule:nonzero;stroke:none"
         id="path40" />
      <path
         d="m 184.426,675.969 c -1.598,-2.453 -12.52,-2.774 -14.395,-0.352 -4.812,6.215 -6.937,14.512 -11.261,24.594 13.851,0 22.07,0 34.421,0 -3.101,-9.336 -4.519,-17.707 -8.765,-24.242 z m 23.199,41.867 c -31.766,0 -62.074,0 -93,0 0,-5.875 0,-10.883 0,-16.383 10.316,-0.465 19.52,-0.883 29.949,-1.355 0.395,-7.258 0.375,-12.688 1.043,-18.035 2.086,-16.793 14.403,-27.684 31.024,-27.747 15.722,-0.058 28.953,10.422 30.718,26.375 1.329,11.997 0.266,24.258 0.266,37.145"
         style="fill:#31204f;fill-opacity:1;fill-rule:nonzero;stroke:none"
         id="path42" />
      <path
         d="m 462.816,182.738 c -5.683,-0.008 -14.75,8.024 -16.281,14.051 -2.324,9.133 4.57,18.262 14.668,17.449 6.887,-0.558 13.274,-7.359 19.887,-11.359 0.109,-2.418 0.223,-4.828 0.336,-7.238 -6.203,-4.653 -12.403,-12.903 -18.61,-12.903 z m 19.36,39.422 c -10.231,8.61 -21,10.949 -32.918,6.641 -13.414,-4.86 -20.43,-15.723 -20.789,-29.563 -0.328,-12.488 4.683,-23.66 16.863,-28.879 10.816,-4.64 22.387,-7.507 35.191,-11.668 7.719,17.118 15.887,35.239 24.075,53.418 -8.465,3.641 -16.758,5.289 -22.422,10.051"
         style="fill:#31204f;fill-opacity:1;fill-rule:nonzero;stroke:none"
         id="path44" />
      <path
         d="m 413.805,230.02 c -9.59,6.128 -16.797,10.742 -24.66,15.769 15.062,7.461 22.046,3.512 24.66,-15.769 z m 6.406,-17.141 c 12.059,15.031 12.25,30.16 1.242,41.961 -11.293,12.101 -29.871,13.699 -43.004,3.699 -13.269,-10.09 -17.328,-28.68 -9.234,-42.309 8.558,-14.41 25.644,-20.511 43.769,-12.46 -6.32,4.16 -10.324,8.128 -15.105,9.671 -10.133,3.258 -17.645,7.649 -16.234,22.059 13.511,-7.918 25.64,-15.039 38.566,-22.621"
         style="fill:#31204f;fill-opacity:1;fill-rule:nonzero;stroke:none"
         id="path46" />
      <path
         d="m 694.457,159.609 c -9.418,0 -17.687,0 -27.211,0 9.508,13.36 15.434,13.45 27.211,0 z m -3.977,-23.531 c -11.371,-5.566 -17.742,-2.258 -23.292,10.391 14.718,0 28.746,0 43.613,0 0.187,22.363 -8.328,34.191 -24.821,37.351 -14.121,2.711 -29.468,-5.461 -35.105,-18.691 -6.238,-14.641 -1.332,-32.43 11.246,-40.801 13.266,-8.828 31.805,-6.308 44.051,6.121 -3.121,7.742 -7.035,9.871 -15.692,5.629"
         style="fill:#31204f;fill-opacity:1;fill-rule:nonzero;stroke:none"
         id="path48" />
      <path
         d="m 252.141,376.023 c -4.641,6.79 -9.282,13.575 -13.922,20.364 0.836,1.215 1.676,2.426 2.511,3.64 4.762,-2.777 10.942,-4.535 13.868,-8.625 2.691,-3.757 1.886,-10.019 2.621,-15.183 -1.696,-0.063 -3.387,-0.129 -5.078,-0.196 z m 17.769,19.008 c -6.637,14.797 -21.976,22.254 -37.773,18.367 -15.34,-3.773 -25.578,-18.101 -24.41,-34.156 1.203,-16.48 13.199,-28.512 34.593,-30.39 -3.777,6.617 -5.285,12.16 -8.906,15.089 -11.039,8.903 -12.871,14.348 -5.539,25.723 8.543,-11.754 16.852,-23.184 25.688,-35.336 17.968,12.012 23.078,25.695 16.347,40.703"
         style="fill:#31204f;fill-opacity:1;fill-rule:nonzero;stroke:none"
         id="path50" />
      <path
         d="m 168.145,554.785 c -2.149,9.66 -4.02,18.067 -6.204,27.883 16.426,-7.605 18.075,-15.063 6.204,-27.883 z m 22.554,13.664 c -0.695,15.473 -10.918,27.227 -25.824,29.696 -16.121,2.668 -30.934,-4.829 -36.547,-18.493 -6.5,-15.828 -0.598,-32.906 15.723,-43.675 2.32,3.406 4.644,6.82 6.898,10.125 -8.367,10.589 -15.91,20.543 -1.836,34.136 4.184,-15.504 7.942,-29.453 11.95,-44.312 21.644,5.324 30.402,15.441 29.636,32.523"
         style="fill:#31204f;fill-opacity:1;fill-rule:nonzero;stroke:none"
         id="path52" />
    </g>
  </g>
</svg>
