<?xml version="1.0" encoding="UTF-8" standalone="no"?>
<svg
   inkscape:version="1.4 (e7c3feb1, 2024-10-09)"
   height="448.39999"
   width="260.99222"
   sodipodi:docname="seriea_logo.svg"
   xml:space="preserve"
   viewBox="0 0 260.99223 448.4"
   y="0px"
   x="0px"
   id="Livello_1"
   version="1.0"
   xmlns:inkscape="http://www.inkscape.org/namespaces/inkscape"
   xmlns:sodipodi="http://sodipodi.sourceforge.net/DTD/sodipodi-0.dtd"
   xmlns="http://www.w3.org/2000/svg"
   xmlns:svg="http://www.w3.org/2000/svg"
   xmlns:rdf="http://www.w3.org/1999/02/22-rdf-syntax-ns#"
   xmlns:cc="http://creativecommons.org/ns#"
   xmlns:dc="http://purl.org/dc/elements/1.1/"><metadata
   id="metadata922"><rdf:RDF><cc:Work
       rdf:about=""><dc:format>image/svg+xml</dc:format><dc:type
         rdf:resource="http://purl.org/dc/dcmitype/StillImage" /><dc:title /></cc:Work></rdf:RDF></metadata><defs
   id="defs920">
	
	
	
	
</defs><sodipodi:namedview
   inkscape:current-layer="Livello_1"
   inkscape:window-maximized="0"
   inkscape:window-y="0"
   inkscape:window-x="0"
   inkscape:cy="230.04336"
   inkscape:cx="74.381687"
   inkscape:zoom="1.667077"
   fit-margin-bottom="0"
   fit-margin-right="0"
   fit-margin-left="0"
   fit-margin-top="0"
   inkscape:guide-bbox="true"
   showguides="true"
   inkscape:pagecheckerboard="true"
   showgrid="false"
   id="namedview918"
   inkscape:window-height="1080"
   inkscape:window-width="1920"
   inkscape:pageshadow="2"
   inkscape:pageopacity="0"
   guidetolerance="10"
   gridtolerance="10"
   objecttolerance="10"
   borderopacity="1"
   bordercolor="#666666"
   pagecolor="#ffffff"
   inkscape:showpageshadow="0"
   inkscape:deskcolor="#505050" />
<style
   id="style833"
   type="text/css">
	.st0{fill:#FFFFFF;}
	.st1{fill:#0032A0;}
	.st2{fill:#C8102E;}
	.st3{fill:#00B74F;}
	.st4{fill:#E4002B;}
	.st5{fill:#1A1659;}
	.st6{fill:url(#SVGID_1_);}
	.st7{fill:url(#SVGID_2_);}
</style>
<rect
   style="stroke-width:0.971688"
   x="0"
   id="rect835"
   height="361.80392"
   width="260.99222"
   fill="none"
   y="0" />


<g
   transform="matrix(0.92616116,0,0,0.92616116,0.84137887,0.42544866)"
   id="g871">
	<path
   id="path859"
   d="m 39,329.8 c -0.2,-0.2 -0.4,-0.7 -0.1,-1 l 4.6,-5.3 c 0.2,-0.3 0.6,-0.3 0.9,-0.1 2.7,2.2 6.4,4.2 10.8,4.2 4.3,0 6.7,-2 6.7,-4.9 0,-2.4 -1.5,-3.9 -6.4,-4.6 l -2.2,-0.3 c -8.4,-1.2 -13,-5.1 -13,-12.3 0,-7.6 5.7,-12.6 14.6,-12.6 5.4,0 10.5,1.6 14,4.3 0.4,0.2 0.4,0.5 0.1,0.9 l -3.7,5.5 c -0.2,0.3 -0.5,0.4 -0.8,0.2 -3.1,-2.1 -6.2,-3.1 -9.6,-3.1 -3.6,0 -5.5,1.9 -5.5,4.5 0,2.4 1.7,3.9 6.4,4.5 L 58,310 c 8.5,1.2 13,5 13,12.5 0,7.4 -5.5,13 -16.2,13 -6.4,-0.1 -12.6,-2.6 -15.8,-5.7 z"
   class="st5" />
	<path
   id="path861"
   d="m 75.8,294.2 c 0,-0.4 0.2,-0.6 0.6,-0.6 h 26.4 c 0.4,0 0.6,0.2 0.6,0.6 v 6.5 c 0,0.4 -0.2,0.6 -0.6,0.6 H 85 c -0.2,0 -0.4,0.1 -0.4,0.4 v 8.2 c 0,0.2 0.1,0.4 0.4,0.4 h 14.8 c 0.4,0 0.6,0.2 0.6,0.6 v 6.4 c 0,0.4 -0.2,0.6 -0.6,0.6 H 85 c -0.2,0 -0.4,0.1 -0.4,0.4 v 8.5 c 0,0.2 0.1,0.4 0.4,0.4 h 17.7 c 0.4,0 0.6,0.2 0.6,0.6 v 6.5 c 0,0.4 -0.2,0.6 -0.6,0.6 H 76.4 c -0.4,0 -0.6,-0.2 -0.6,-0.6 z"
   class="st5" />
	<path
   id="path863"
   d="m 131.5,334.7 c -0.5,0 -0.7,-0.2 -0.9,-0.6 L 123.5,319 H 118 c -0.2,0 -0.4,0.1 -0.4,0.4 v 14.7 c 0,0.4 -0.2,0.6 -0.6,0.6 h -7.7 c -0.4,0 -0.6,-0.2 -0.6,-0.6 v -40 c 0,-0.4 0.2,-0.6 0.6,-0.6 h 16.4 c 8.4,0 14,5.3 14,12.8 0,5.3 -2.8,9.4 -7.3,11.4 l 8.1,16.2 c 0.2,0.4 0,0.7 -0.4,0.7 h -8.6 z m -0.6,-28.3 c 0,-3.1 -2.2,-5.1 -5.6,-5.1 H 118 c -0.2,0 -0.4,0.1 -0.4,0.4 v 9.5 c 0,0.2 0.1,0.4 0.4,0.4 h 7.3 c 3.4,-0.1 5.6,-2.1 5.6,-5.2 z"
   class="st5" />
	<path
   id="path865"
   d="m 145.3,294.2 c 0,-0.4 0.2,-0.6 0.6,-0.6 h 7.7 c 0.4,0 0.6,0.2 0.6,0.6 v 40 c 0,0.4 -0.2,0.6 -0.6,0.6 H 146 c -0.4,0 -0.6,-0.2 -0.6,-0.6 v -40 z"
   class="st5" />
	<path
   id="path867"
   d="m 160.9,294.2 c 0,-0.4 0.2,-0.6 0.6,-0.6 h 26.4 c 0.4,0 0.6,0.2 0.6,0.6 v 6.5 c 0,0.4 -0.2,0.6 -0.6,0.6 h -17.7 c -0.2,0 -0.4,0.1 -0.4,0.4 v 8.2 c 0,0.2 0.1,0.4 0.4,0.4 H 185 c 0.4,0 0.6,0.2 0.6,0.6 v 6.4 c 0,0.4 -0.2,0.6 -0.6,0.6 h -14.8 c -0.2,0 -0.4,0.1 -0.4,0.4 v 8.5 c 0,0.2 0.1,0.4 0.4,0.4 h 17.7 c 0.4,0 0.6,0.2 0.6,0.6 v 6.5 c 0,0.4 -0.2,0.6 -0.6,0.6 h -26.4 c -0.4,0 -0.6,-0.2 -0.6,-0.6 z"
   class="st5" />
	<path
   id="path869"
   d="m 218.1,294.2 c 0.1,-0.4 0.4,-0.6 0.8,-0.6 h 7.6 c 0.4,0 0.7,0.2 0.8,0.6 l 13.9,40 c 0.1,0.4 0,0.6 -0.4,0.6 h -7.9 c -0.4,0 -0.7,-0.2 -0.8,-0.6 l -2.4,-7.2 h -14.4 l -2.3,7.2 c -0.1,0.4 -0.4,0.6 -0.8,0.6 h -7.9 c -0.4,0 -0.5,-0.2 -0.4,-0.6 z m 9.2,25.2 -4.7,-14.4 h -0.2 l -4.7,14.4 z"
   class="st5" />
</g>
<g
   transform="matrix(0.92616116,0,0,0.92616116,0.04630987,1.1093283)"
   id="g915">
	<g
   id="g898">
		<g
   id="g896">
			<g
   id="g894">
				<polygon
   id="polygon873"
   points="40.5,209.2 101.9,209.2 140.8,272.8 "
   class="st5" />
				<polygon
   id="polygon875"
   points="241.2,209.2 179.7,209.2 140.8,272.8 "
   class="st5" />
				<polygon
   id="polygon877"
   points="101.9,209.2 140.8,209.2 179.7,209.2 140.8,106.5 "
   class="st5" />
				<linearGradient
   y2="240.95979"
   x2="179.7025"
   y1="240.95979"
   x1="101.9403"
   gradientUnits="userSpaceOnUse"
   id="SVGID_1_">
					<stop
   id="stop879"
   style="stop-color:#31ECFF"
   offset="0" />
					<stop
   id="stop881"
   style="stop-color:#2DE2FF"
   offset="4.937099e-02" />
					<stop
   id="stop883"
   style="stop-color:#1BB2FF"
   offset="0.2964" />
					<stop
   id="stop885"
   style="stop-color:#0E90FF"
   offset="0.5147" />
					<stop
   id="stop887"
   style="stop-color:#067BFF"
   offset="0.694" />
					<stop
   id="stop889"
   style="stop-color:#0373FF"
   offset="0.8118" />
				</linearGradient>
				<polygon
   style="fill:url(#SVGID_1_)"
   id="polygon892"
   points="140.8,272.8 179.7,209.2 101.9,209.2 "
   class="st6" />
			</g>
		</g>
	</g>
	<linearGradient
   y2="241.42371"
   x2="129.11411"
   y1="50.923302"
   x1="198.45061"
   gradientUnits="userSpaceOnUse"
   id="SVGID_2_">
		<stop
   id="stop900"
   style="stop-color:#31ECFF"
   offset="0" />
		<stop
   id="stop902"
   style="stop-color:#2DE2FF"
   offset="4.882737e-02" />
		<stop
   id="stop904"
   style="stop-color:#1BB2FF"
   offset="0.2932" />
		<stop
   id="stop906"
   style="stop-color:#0E90FF"
   offset="0.5091" />
		<stop
   id="stop908"
   style="stop-color:#067BFF"
   offset="0.6863" />
		<stop
   id="stop910"
   style="stop-color:#0373FF"
   offset="0.8028" />
	</linearGradient>
	<path
   style="fill:url(#SVGID_2_)"
   id="path913"
   d="m 140.8,106.5 16.8,44.3 H 136.4 L 122,189 h 50.1 l 7.6,20.2 h 61.5 L 168.5,40 c -18.5,0 -36.9,0 -55.4,0 L 40.5,209.2 H 102 Z"
   class="st7" />
</g>
<g
   transform="matrix(0.94871791,0,0,0.93333333,-33.55458,21.875727)"
   id="g1035"><rect
     style="opacity:1;fill:#00a346;fill-opacity:1;stroke:none;stroke-width:0.137619;stroke-linecap:round;stroke-linejoin:round;paint-order:stroke fill markers"
     id="rect1009"
     width="65"
     height="15"
     x="75.418297"
     y="329.15222" /><rect
     y="329.15222"
     x="140.4183"
     height="15"
     width="65"
     id="rect1009-5"
     style="opacity:1;fill:#e2e2e2;fill-opacity:1;stroke:none;stroke-width:0.137619;stroke-linecap:round;stroke-linejoin:round;paint-order:stroke fill markers" /><rect
     y="329.15222"
     x="205.4183"
     height="15"
     width="65"
     id="rect1009-55"
     style="opacity:1;fill:#db052b;fill-opacity:1;stroke:none;stroke-width:0.137619;stroke-linecap:round;stroke-linejoin:round;paint-order:stroke fill markers" /></g></svg>
