<?xml version="1.0" encoding="UTF-8" standalone="no"?>
<!-- Created with Inkscape (http://www.inkscape.org/) -->

<svg
   version="1.1"
   id="svg2"
   width="117.33333"
   height="113.33333"
   viewBox="0 0 117.33333 113.33333"
   sodipodi:docname="uefa-champions-league-seeklogo.eps"
   xmlns:inkscape="http://www.inkscape.org/namespaces/inkscape"
   xmlns:sodipodi="http://sodipodi.sourceforge.net/DTD/sodipodi-0.dtd"
   xmlns="http://www.w3.org/2000/svg"
   xmlns:svg="http://www.w3.org/2000/svg">
  <defs
     id="defs6" />
  <sodipodi:namedview
     id="namedview4"
     pagecolor="#ffffff"
     bordercolor="#000000"
     borderopacity="0.25"
     inkscape:showpageshadow="2"
     inkscape:pageopacity="0.0"
     inkscape:pagecheckerboard="0"
     inkscape:deskcolor="#d1d1d1" />
  <g
     id="g8"
     inkscape:groupmode="layer"
     inkscape:label="ink_ext_XXXXXX"
     transform="matrix(1.3333333,0,0,-1.3333333,0,113.33333)">
    <g
       id="g10"
       transform="scale(0.1)">
      <path
         d="m 439.086,625.449 c 43.223,-11.926 75.449,-17.551 75.449,-17.551 -18.543,18.547 -35.129,37.622 -49.492,55.661 25.086,35.472 44.848,60.027 44.848,60.027 -26.61,-5.895 -51.766,-13.102 -74.293,-20.504 -21.407,30.738 -33.16,52.379 -33.16,52.379 -6.247,-23.074 -9.262,-46.184 -10.274,-67.891 -35.762,-13.851 -58.109,-25.168 -58.109,-25.168 19.332,-8.714 39.41,-16.32 58.851,-22.867 3.149,-41.738 11.59,-70.711 11.59,-70.711 10.844,19.356 22.762,38.606 34.59,56.625"
         style="fill:#2a2a2b;fill-opacity:1;fill-rule:evenodd;stroke:none"
         id="path12" />
      <path
         d="m 636.379,636.395 c -5.879,-9.2 -14.871,-15.766 -25.387,-20.383 -1.441,29.519 -5.957,55.64 -5.957,55.64 -8.976,-24.254 -18.515,-45.777 -27.711,-64.359 -31.687,-4.063 -62.789,0.602 -62.789,0.602 17.055,-20.461 30.309,-32.594 41.031,-40.786 -16.043,-27.043 -27.66,-41.48 -27.66,-41.48 22.426,5.129 40.25,13.648 54.434,23.746 5.805,-3.984 10.801,-8.43 15.734,-15.961 0,0 9.153,12.977 12.285,43.027 22.661,29.633 26.02,59.954 26.02,59.954"
         style="fill:#2a2a2b;fill-opacity:1;fill-rule:evenodd;stroke:none"
         id="path14" />
      <path
         d="m 626.031,718.223 c -10.105,22.718 -24.652,39.855 -40.523,52.761 -13.528,28.426 -29.106,41.551 -29.106,41.551 1.313,-6.539 0.317,-13.945 -2.113,-21.586 -33.699,16.703 -64.434,19.028 -64.434,19.028 19.579,-12.836 36.954,-28.743 51.879,-45.145 -13.75,-22.371 -31.832,-41.25 -31.832,-41.25 23.969,5.402 43.262,7.676 58.696,8.086 23.687,-32.617 36.441,-60.016 36.441,-60.016 0.457,22.051 -1.746,41.282 -5.43,57.879 20.055,-3.824 26.422,-11.308 26.422,-11.308"
         style="fill:#2a2a2b;fill-opacity:1;fill-rule:evenodd;stroke:none"
         id="path16" />
      <path
         d="m 489.855,809.977 c -16.351,8.222 -31.996,13.949 -46.546,17.886 18.523,15.668 35.754,19.637 35.754,19.637 -29.739,1.176 -55.313,-4.191 -76.719,-12.426 -31.965,2.551 -52.324,-2.996 -52.324,-2.996 4.781,-3.605 8.824,-10.055 12.957,-17.765 -27.012,-18.497 -40.735,-37.77 -40.735,-37.77 16.285,8.086 33.563,14.215 50.598,18.883 1.859,-3.41 3.808,-6.817 5.945,-10.145 11.281,-17.566 23.664,-29.824 23.664,-29.824 4.426,21.055 12.039,37.449 20.789,50.168 38.016,5.289 66.617,4.352 66.617,4.352"
         style="fill:#2a2a2b;fill-opacity:1;fill-rule:evenodd;stroke:none"
         id="path18" />
      <path
         d="m 284.621,745.133 c 10.188,9.847 22.598,20.461 37.621,31.41 0,0 -13.859,0 -28.508,-3.727 9.692,23.457 20.438,36.465 20.438,36.465 0,0 -61.688,-43.875 -73.402,-122.722 0,0 5.183,14.257 22.761,35.757 6.977,-15.628 15.008,-25.468 15.008,-25.468 0.106,18 2.543,34.175 6.082,48.285"
         style="fill:#2a2a2b;fill-opacity:1;fill-rule:evenodd;stroke:none"
         id="path20" />
      <path
         d="m 334.066,662.398 c -21.414,-0.671 -38.207,-2.55 -51.285,-4.941 -3.676,22.91 -4.238,39.391 -4.238,39.391 -10.578,-16.141 -17.422,-31.703 -21.66,-46.196 -14.91,-5.527 -18.676,-10.871 -18.676,-10.871 2.324,-7.945 6.977,-15.676 12.848,-22.922 -1.836,-34.328 9.269,-57.007 9.269,-57.007 2.496,12.031 7.477,23.746 13.735,34.695 18.261,-14.641 36.351,-24.188 36.351,-24.188 -8.523,15.278 -14.797,32.387 -19.402,48.946 20.472,25.703 43.058,43.093 43.058,43.093"
         style="fill:#2a2a2b;fill-opacity:1;fill-rule:evenodd;stroke:none"
         id="path22" />
      <path
         d="m 439.992,487.051 c 0,0 -17.965,7.168 -43.679,21.656 0.917,15.457 3.3,35.141 8.191,60.113 0,0 -20.438,-20.226 -46.906,-35.902 -15.36,10.613 -31.508,23.074 -47.192,37.437 0,0 7.633,-23.585 22.344,-49.558 -13.957,-5.223 -28.344,-7.645 -41.496,-4.426 0,0 15.539,-19.402 63.473,-27.637 13.289,-15.773 29.484,-28.8 48.382,-33.332 0,0 -5.695,6.25 -6.961,29.696 13.071,-0.176 27.629,0.398 43.844,1.953"
         style="fill:#2a2a2b;fill-opacity:1;fill-rule:evenodd;stroke:none"
         id="path24" />
      <path
         d="m 526.879,489.031 c 4.121,18.965 1.027,36.602 1.027,36.602 -12.129,-17.442 -24.047,-30.715 -35.078,-40.824 -29.68,-1.536 -52.84,2.242 -52.84,2.242 0,0 13.246,-13.227 28.524,-20.863 -20.168,-12.473 -33.68,-13.586 -33.68,-13.586 88.281,-1.868 141.262,55.769 141.262,55.769 -14.879,-9.816 -32.106,-15.816 -49.215,-19.34"
         style="fill:#2a2a2b;fill-opacity:1;fill-rule:evenodd;stroke:none"
         id="path26" />
      <path
         d="m 342.41,254.195 c 22.328,25.547 55.153,41.696 91.746,41.696 37.625,0 71.289,-17.082 93.621,-43.899 l 5.903,5.528 c -23.797,28.296 -59.473,46.289 -99.352,46.289 -38.844,0 -73.703,-17.063 -97.492,-44.121 l 5.574,-5.493"
         style="fill:#2a2a2b;fill-opacity:1;fill-rule:evenodd;stroke:none"
         id="path28" />
      <path
         d="m 423.77,318.75 -35.668,-7.414 -8.954,43.172 35.141,7.297 1.66,-7.91 -23.101,-4.801 1.859,-9.051 22.051,4.582 1.652,-7.918 -22.039,-4.578 2.141,-10.375 23.609,4.898 1.649,-7.902"
         style="fill:#2a2a2b;fill-opacity:1;fill-rule:evenodd;stroke:none"
         id="path30" />
      <path
         d="m 491.773,346.594 -21.25,4.496 -2.039,-9.629 21.266,-4.473 -1.66,-7.91 -21.27,4.492 -3.734,-17.699 -12.043,2.535 9.105,43.121 33.297,-7.019 -1.672,-7.914"
         style="fill:#2a2a2b;fill-opacity:1;fill-rule:evenodd;stroke:none"
         id="path32" />
      <path
         d="m 543.148,272.816 -10.558,9.993 1.664,9.472 -18.145,12.61 -8.007,-5.055 -12.008,6.711 42.816,25.562 11.707,-8.144 -7.469,-51.149 z M 539.523,320 523.324,309.758 536.18,300.816 Z"
         style="fill:#2a2a2b;fill-opacity:1;fill-rule:evenodd;stroke:none"
         id="path34" />
      <path
         d="m 347.285,290.496 c -7.91,-6.254 -21.301,-11.391 -31.117,0.137 l -14.145,18.16 9.465,7.453 13.887,-17.836 c 5.012,-5.898 11.313,-4.773 16.32,-0.824 5.028,3.93 7.582,9.824 3.032,16.082 l -13.907,17.828 9.457,7.453 14.161,-18.172 c 8.441,-11.605 3.214,-22.062 -7.153,-30.281"
         style="fill:#2a2a2b;fill-opacity:1;fill-rule:evenodd;stroke:none"
         id="path36" />
      <path
         d="m 586.559,315.883 c -37.989,39.93 -91.653,64.847 -151.118,64.847 -60.179,0 -114.414,-25.492 -152.468,-66.277 l -6.426,6.535 c 39.969,41.856 96.328,67.926 158.746,67.926 61.949,0 117.879,-25.652 157.793,-66.922 l -6.527,-6.109"
         style="fill:#2a2a2b;fill-opacity:1;fill-rule:evenodd;stroke:none"
         id="path38" />
      <path
         d="m 629.172,140.602 c -26.375,0 -42.41,22.117 -42.41,46.371 0,25.187 18.687,43.468 43.082,43.468 27.035,0 43.336,-21.457 43.336,-45.058 -0.004,-27.953 -20.27,-44.797 -44.008,-44.781 z m -1.469,77.121 c -16.41,0 -21.324,-15.645 -21.324,-26.246 0,-15.497 6.887,-38.161 25.84,-38.161 13.508,0 21.359,12.051 21.359,26.512 0,15.367 -5.976,37.895 -25.875,37.895"
         style="fill:#2a2a2b;fill-opacity:1;fill-rule:evenodd;stroke:none"
         id="path40" />
      <path
         d="m 467.625,153.18 c 0,-4.778 0.938,-6.489 8.633,-7.957 v -3.309 c -8.356,0.399 -13.539,0.789 -18.438,0.789 -4.91,0 -10.078,-0.398 -15.906,-0.789 v 3.309 c 5.184,0.922 6.106,3.179 6.106,9.418 v 64.808 c 0,3.707 -1.606,5.438 -6.106,5.567 v 3.687 h 39.231 c 24.535,0 33.414,-11.676 33.414,-27.035 -0.016,-16.445 -12.481,-26.512 -29.567,-26.512 -6.488,0 -16.043,3.313 -16.043,6.09 0,1.207 0.789,1.207 2.004,1.207 1.176,0 2.91,-0.414 4.621,-0.414 13.91,0 19.348,7.824 19.348,18.84 0,11.91 -7.418,16.152 -19.09,16.152 l -8.219,-0.859 0.004,-62.992 z m 0,0 v 0 0"
         style="fill:#2a2a2b;fill-opacity:1;fill-rule:evenodd;stroke:none"
         id="path42" />
      <path
         d="m 540.172,220.242 c 0,3.719 -1.598,5.438 -6.106,5.567 v 3.472 c 5.829,-0.414 11.02,-0.793 15.922,-0.793 4.899,0 10.078,0.391 15.875,0.793 v -3.472 c -4.476,-0.137 -6.086,-1.848 -6.086,-5.567 v -69.449 c 0,-3.703 1.598,-5.434 6.086,-5.563 v -3.316 c -5.816,0.383 -10.992,0.777 -15.875,0.789 -4.902,0 -10.093,-0.414 -15.922,-0.789 v 3.309 c 4.516,0.136 6.106,1.859 6.106,5.562 v 69.457"
         style="fill:#2a2a2b;fill-opacity:1;fill-rule:evenodd;stroke:none"
         id="path44" />
      <path
         d="m 699.738,220.324 c 0,3.707 -1.574,5.426 -6.097,5.551 v 3.473 c 5.836,-0.414 10.996,-0.793 15.91,-0.801 3.586,0 7.551,0 11.66,0.801 l 36.586,-59.282 0.258,0.004 v 48.407 c 0,6.871 -4.36,7.398 -7.953,7.398 v 3.461 c 4.367,-0.398 8.605,-0.789 12.718,-0.789 4.379,0 8.762,0.394 12.996,0.789 v -3.461 c -4.511,-0.137 -6.093,-1.844 -6.093,-5.551 v -78.426 h -14.071 l -43.992,68.469 h -0.265 v -57.66 c 0,-6.883 4.39,-7.422 7.964,-7.422 v -3.308 c -4.379,0.414 -8.625,0.789 -12.742,0.789 -4.363,0 -8.734,-0.383 -12.972,-0.789 l -0.004,3.312 c 4.507,0.145 6.097,1.875 6.097,5.582 v 69.453"
         style="fill:#2a2a2b;fill-opacity:1;fill-rule:evenodd;stroke:none"
         id="path46" />
      <path
         d="m 802.934,172.051 c 2.714,-14.867 12.484,-21.824 27.089,-21.824 8.047,0 19.625,2.316 19.625,12.539 0,8.199 -8.437,10.386 -14.726,12.285 l -9.692,2.867 c -13.902,4.086 -27.832,9.961 -27.832,26.078 0,21.133 20.465,27.539 40.801,27.539 8.594,0 17.473,-1.492 25.379,-4.363 0,-9.817 0.543,-18.137 1.09,-25.223 l -3.406,-0.008 c -2.871,12.547 -13.098,18.407 -25.375,18.407 -6.817,0 -18.293,-2.168 -18.293,-11.586 0,-7.508 6.554,-9.676 12.144,-11.336 l 14.321,-4.086 c 13.816,-3.945 26.625,-9.008 26.625,-26.735 0,-18.015 -18.153,-27.562 -40.395,-27.562 -9.961,0 -20.453,1.637 -29.617,4.902 0,10.785 -0.418,20.192 -1.07,28.114 h 3.332 z m 0,0 v 0 0"
         style="fill:#2a2a2b;fill-opacity:1;fill-rule:evenodd;stroke:none"
         id="path48" />
      <path
         d="m 113.773,220.258 c 0,3.719 -1.578,5.445 -6.089,5.566 v 3.457 c 5.836,-0.398 10.988,-0.781 15.886,-0.781 4.926,0 10.094,0.391 15.907,0.781 v -3.457 c -4.485,-0.129 -6.082,-1.847 -6.082,-5.566 v -26.25 h 32.078 v 26.25 c 0,3.719 -1.602,5.445 -6.11,5.566 v 3.457 c 5.821,-0.398 11.02,-0.781 15.91,-0.781 4.899,0 10.071,0.391 15.899,0.781 v -3.472 c -4.5,-0.114 -6.098,-1.832 -6.098,-5.551 l -0.023,-69.465 c 0,-3.707 1.625,-5.438 6.113,-5.566 v -3.379 c -5.828,0.402 -11,0.793 -15.898,0.793 -4.891,0 -10.09,-0.399 -15.911,-0.793 v 3.379 c 4.516,0.136 6.106,1.859 6.106,5.566 v 30.48 h -32.074 v -30.48 c 0,-3.707 1.566,-5.438 6.082,-5.566 v -3.379 c -5.832,0.402 -10.981,0.793 -15.906,0.793 -4.899,0 -10.067,-0.399 -15.903,-0.793 v 3.379 c 4.531,0.136 6.098,1.859 6.098,5.566 v 69.465 z m 0,0 v 0 0"
         style="fill:#2a2a2b;fill-opacity:1;fill-rule:evenodd;stroke:none"
         id="path50" />
      <path
         d="m 240.238,179.828 c 3.457,9.406 7.696,19.871 10.731,30.485 h 0.277 c 2.649,-13.391 4.883,-21.868 7.676,-30.485 h -18.684 z m -32.086,-37.914 c 4.649,0.399 9.149,0.789 13.786,0.789 4.515,0 9.16,-0.398 13.648,-0.789 v 3.309 c -4.367,0.261 -6.234,1.859 -6.234,4.238 0,1.324 0.406,2.781 1.074,4.633 l 5.828,15.644 h 25.84 l 4.238,-12.847 c 0.684,-1.727 1.332,-4.774 1.332,-6.637 0,-3.043 -1.715,-4.117 -6.637,-5.039 v -3.301 c 5.707,0.399 11.407,0.789 17.102,0.789 5.562,0 11.273,-0.398 16.824,-0.789 v 3.309 c -3.961,1.066 -5.949,2.781 -7.953,8.617 l -24.383,75.433 c -4.109,-0.394 -8.355,-0.777 -12.449,-0.777 -4.109,0 -8.223,0.391 -12.465,0.777 v -3.472 c 3.586,0 5.047,-2.106 5.047,-3.426 0,-1.336 -0.93,-3.187 -1.715,-5.176 l -25.98,-65.871 c -1.344,-3.441 -3.063,-5.574 -6.907,-6.098 v -3.316 h 0.004"
         style="fill:#2a2a2b;fill-opacity:1;fill-rule:evenodd;stroke:none"
         id="path52" />
      <path
         d="m 321.715,207.793 c 0.129,3.707 0.406,7.426 0.406,12.715 0,4.133 -0.93,4.633 -5.961,5.305 v 3.472 c 3.969,-0.398 8.746,-0.781 13.531,-0.781 4.762,0 9.532,0.391 14.286,0.781 l 23.226,-61.457 20.789,61.457 c 4.637,-0.414 9.16,-0.781 13.778,-0.781 4.648,0 9.285,0.375 13.8,0.781 v -3.472 c -4.629,-0.399 -5.312,-1.848 -5.312,-5.446 0,-3.691 0.527,-9.652 0.922,-14.179 l 4.238,-56.586 c 0.289,-3.457 4.125,-3.985 6.773,-4.379 l 0.004,-3.309 c -5.703,0.399 -11.535,0.789 -17.246,0.789 -5.828,0 -11.508,-0.398 -16.957,-0.789 v 3.309 c 6.477,0.793 8.219,1.996 8.219,8.082 0,3.183 -0.406,9.16 -0.777,13.523 l -3.047,39.504 h -0.282 L 369.988,141.18 h -11.144 l -25.305,65.949 h -0.269 l -1.059,-38.852 c -0.141,-6.882 -0.414,-10.453 -0.414,-14.031 0,-6.629 0.668,-8.101 8.625,-9.019 v -3.313 c -5.309,0.399 -10.207,0.789 -15.246,0.789 -4.899,0 -9.817,-0.398 -13.922,-0.789 v 3.309 c 5.168,0.394 7.297,1.582 7.559,7.164 l 2.902,55.406"
         style="fill:#2a2a2b;fill-opacity:1;fill-rule:evenodd;stroke:none"
         id="path54" />
      <path
         d="M 87.7148,146.766 C 78.6328,139.813 65.6211,137 57.125,137 25.5273,137 7.67578,161.535 7.67578,186.645 c 0,25.718 17.85152,50.543 52.08202,50.543 12.0156,0 20.625,-2.29 23.9805,-3.602 0,-10.047 0.5469,-19.738 1.2812,-29.34 H 81.1953 C 78.8477,216.512 70.3203,223 58.0039,223 c -16.6797,0 -29.543,-13.125 -29.543,-35.305 0,-16.699 13.7539,-35.593 33.0469,-35.593 8.207,0 20.0078,4.468 27.8945,11.125 l -1.6875,-16.461"
         style="fill:#2a2a2b;fill-opacity:1;fill-rule:evenodd;stroke:none"
         id="path56" />
      <path
         d="m 231.191,93.9883 c 0,2.8594 -1.222,4.1914 -4.691,4.289 v 2.8047 c 4.5,-0.305 8.488,-0.613 12.285,-0.613 4.297,0 10.512,0.304 13.5,0.613 v -2.8047 c -5.215,-0.2031 -5.933,-2.7539 -5.933,-5.6328 V 42.5508 l 18.921,0.0039 c 6.743,0 9.52,3.0625 11.243,10.8359 h 3.316 c -1.238,-6.6523 -2.355,-13.1992 -2.453,-19.8437 H 226.5 v 2.789 c 3.469,0.1133 4.691,1.4258 4.691,4.3047 v 53.3477"
         style="fill:#2a2a2b;fill-opacity:1;fill-rule:evenodd;stroke:none"
         id="path58" />
      <path
         d="m 296.316,93.6367 c 0,2.8711 -1.222,4.2071 -4.703,4.3047 v 2.8086 l 51.7,-0.004 c 0.132,-5.6327 0.304,-10.1991 0.832,-15.7343 h -2.817 c -1.012,5.6328 -2.445,7.5664 -7.976,7.5664 H 311.48 V 72.8125 l 13.59,-0.0039 c 4.614,0 5.317,1.543 5.934,5.2227 h 2.797 c -0.305,-2.5547 -0.613,-6.9688 -0.613,-9.7461 0,-2.75 0.304,-7.2539 0.613,-9.7188 h -2.797 c -0.617,3.6953 -1.32,5.2344 -5.934,5.2344 H 311.48 V 42.5469 h 23.004 c 5.528,0 7.254,1.8281 9,10.4453 h 3.414 C 345.98,44.5859 345.77,39.1563 345.676,33.5391 h -54.063 v 2.789 c 3.481,0.1133 4.703,1.4258 4.703,4.3047 v 53.0039"
         style="fill:#2a2a2b;fill-opacity:1;fill-rule:evenodd;stroke:none"
         id="path60" />
      <path
         d="m 359.156,36.3164 c 2.961,0.4141 4.297,2.0313 5.34,4.6875 l 20.047,50.7266 c 0.625,1.5312 1.312,2.9648 1.312,3.9765 0,1.0352 -1.093,2.6563 -3.867,2.6563 v 2.7817 c 3.262,-0.305 6.45,-0.614 9.621,-0.614 3.168,0 6.446,0.305 9.625,0.614 l 18.832,-58.1997 c 1.524,-4.4844 3.063,-5.8125 6.122,-6.6406 v -2.7734 c -4.282,0.2929 -8.676,0.6015 -12.973,0.6015 -4.402,0 -8.813,-0.3086 -13.215,-0.6015 v 2.7734 c 3.801,0.7226 5.121,1.5469 5.121,3.8867 0,1.418 -0.519,3.7813 -1.027,5.1133 l -3.278,9.8867 h -19.968 l -4.5,-12.0469 c -0.52,-1.4062 -0.817,-2.539 -0.817,-3.5664 0,-1.832 1.43,-3.0468 4.813,-3.2734 v -2.7734 c -3.457,0.2929 -7.055,0.6015 -10.543,0.6015 -3.571,0 -7.063,-0.3086 -10.641,-0.6015 l -0.004,2.7851 z m 39.203,26.6289 c -2.144,6.6524 -3.89,13.1719 -5.925,23.4844 h -0.207 c -2.364,-8.168 -5.633,-16.2305 -8.282,-23.4844 h 14.414"
         style="fill:#2a2a2b;fill-opacity:1;fill-rule:evenodd;stroke:none"
         id="path62" />
      <path
         d="m 480.957,57.457 c 0,4.1016 -1.852,4.3047 -6.441,4.4102 v 3.4141 c 4.179,-0.3086 8.394,-0.6172 12.691,-0.6172 4.59,0 9.094,0.3047 13.695,0.6172 v -3.211 c -3.578,-0.1055 -5.425,-1.0273 -5.425,-5.625 V 33.543 l -5.946,-0.0039 -2.332,6.8476 c -6.469,-6.0508 -13.226,-8.1875 -20.191,-8.1875 -19.238,0 -31.516,15.8633 -31.516,34.2891 0,22.207 14.84,35.6567 36.942,35.6567 7.074,0 14.679,-1.321 20.183,-4.7622 0,-5.0508 0.211,-10.793 0.625,-17.8633 l -2.937,-0.0039 c -1.344,9.1172 -9.969,13.5977 -18.481,13.5977 -14.219,0 -21.172,-10.8672 -21.172,-24.0664 0,-12.7071 7.168,-27.0313 19.028,-27.0313 7.273,0 11.273,3.375 11.273,8.0938 l -0.004,7.3476 z m 0,0 v 0 0"
         style="fill:#2a2a2b;fill-opacity:1;fill-rule:evenodd;stroke:none"
         id="path64" />
      <path
         d="m 521.457,93.9883 c 0,2.8594 -1.215,4.1914 -4.695,4.289 v 2.8047 c 3.285,-0.305 7.468,-0.613 11.769,-0.613 5.317,0 9.524,0.304 13.61,0.613 v -2.8047 c -4.403,-0.2031 -5.52,-1.0195 -5.52,-5.0078 V 55.0273 c 0,-11.5742 4.809,-13.8398 13.102,-13.8398 8.289,0 13.101,2.4766 13.101,13.8398 v 38.2422 c 0,3.9883 -1.125,4.8047 -5.535,5.0078 v 2.8047 c 4.109,-0.305 8.281,-0.613 13.613,-0.613 4.289,0 8.496,0.304 11.766,0.613 v -2.8047 c -3.48,-0.1054 -4.711,-1.4296 -4.711,-4.289 V 57.1641 c 0,-18.9141 -9.824,-24.961 -28.242,-24.961 -18.445,0 -28.277,6.0469 -28.277,23.5508 l 0.003,38.2344 z m 0,0 v 0 0"
         style="fill:#2a2a2b;fill-opacity:1;fill-rule:evenodd;stroke:none"
         id="path66" />
      <path
         d="m 604.34,93.6367 c 0,2.8711 -1.223,4.2071 -4.703,4.3047 v 2.8086 l 51.715,-0.004 c 0.097,-5.6327 0.304,-10.1991 0.816,-15.7343 h -2.797 c -1.035,5.6328 -2.445,7.5664 -7.996,7.5664 H 619.492 V 73.1172 h 13.606 c 4.582,0 5.316,1.5312 5.933,5.2226 l 2.789,-0.0039 c -0.308,-2.5586 -0.593,-6.9687 -0.593,-9.7109 0,-2.7852 0.285,-7.2852 0.593,-9.7539 h -2.793 c -0.617,3.6836 -1.347,5.2383 -5.933,5.2383 H 619.492 V 42.5469 h 23.024 c 5.515,0 7.269,1.8281 8.988,10.4453 h 3.418 c -0.93,-8.4063 -1.125,-13.8359 -1.238,-19.4531 h -54.047 v 2.789 c 3.48,0.1133 4.703,1.4258 4.703,4.3047 v 53.0039"
         style="fill:#2a2a2b;fill-opacity:1;fill-rule:evenodd;stroke:none"
         id="path68" />
      <path
         d="m 670.82,5.94531 c 6.66,0 12.344,5.16799 12.344,12.25779 0,7.0352 -5.691,12.2032 -12.344,12.2032 -6.734,0 -12.425,-5.1602 -12.425,-12.2032 0,-7.082 5.691,-12.25779 12.425,-12.25779 z m -9.984,12.25779 c 0,5.7891 4.367,10.1524 9.984,10.1524 5.512,0 9.879,-4.3672 9.879,-10.1524 0,-5.8906 -4.367,-10.21872 -9.879,-10.21872 -5.617,0 -9.984,4.32812 -9.984,10.21872 z m 7.391,-0.9609 h 2.464 l 3.715,-6.1211 h 2.371 l -4.007,6.2031 c 2.078,0.2617 3.66,1.3711 3.66,3.9063 0,2.7656 -1.649,4.0117 -4.981,4.0117 H 666.07 V 11.1211 h 2.149 v 6.1211 z m 0,1.8164 v 4.3711 h 2.918 c 1.484,0 3.066,-0.3242 3.066,-2.0703 0,-2.1836 -1.606,-2.3008 -3.426,-2.3008 h -2.558"
         style="fill:#2a2a2b;fill-opacity:1;fill-rule:evenodd;stroke:none"
         id="path70" />
    </g>
  </g>
</svg>
