<?xml version="1.0" encoding="UTF-8" standalone="no"?>
<!-- Created with Inkscape (http://www.inkscape.org/) -->

<svg
   version="1.1"
   id="svg2"
   width="320.89334"
   height="459.46667"
   viewBox="0 0 320.89334 459.46667"
   sodipodi:docname="uefa-europa-league-2016-seeklogo.eps"
   xmlns:inkscape="http://www.inkscape.org/namespaces/inkscape"
   xmlns:sodipodi="http://sodipodi.sourceforge.net/DTD/sodipodi-0.dtd"
   xmlns="http://www.w3.org/2000/svg"
   xmlns:svg="http://www.w3.org/2000/svg">
  <defs
     id="defs6" />
  <sodipodi:namedview
     id="namedview4"
     pagecolor="#ffffff"
     bordercolor="#000000"
     borderopacity="0.25"
     inkscape:showpageshadow="2"
     inkscape:pageopacity="0.0"
     inkscape:pagecheckerboard="0"
     inkscape:deskcolor="#d1d1d1" />
  <g
     id="g8"
     inkscape:groupmode="layer"
     inkscape:label="ink_ext_XXXXXX"
     transform="matrix(1.3333333,0,0,-1.3333333,0,459.46667)">
    <g
       id="g10"
       transform="scale(0.1)">
      <path
         d="m 1640.65,3200.71 c 44.46,-29.87 86.84,-64.91 127.13,-105.09 156.77,-156.46 235.16,-345.26 235.16,-566.41 0,-221.45 -78.39,-410.41 -235.16,-566.86 -59.49,-59.38 -123.67,-107.47 -192.57,-144.29 l -12.01,22.04 c 43.8,22.66 95.52,62.08 155.13,118.28 142.68,149.66 214.49,345.77 215.43,588.33 -0.41,10.85 -0.99,21.61 -1.74,32.31 -13.69,197.66 -83.4,370.71 -209.14,519.16 -29.3,31.19 -60.6,57.23 -93.9,78.15 z M 746.492,3156.97 C 724.453,3138.01 703.07,3117.39 682.34,3095.15 543.246,2945.7 470.699,2765.02 464.691,2553.13 c 5.489,-264.66 95.266,-476.63 269.317,-635.92 61.617,-52.85 118.883,-89.47 171.812,-109.87 l -4.898,-24.62 c -98.133,39.04 -187.637,98.92 -268.504,179.63 -156.922,156.45 -235.375,345.41 -235.375,566.86 0,221.15 78.453,409.95 235.375,566.41 33.734,33.7 68.961,63.79 105.68,90.27 l 8.394,-28.92"
         style="fill:#f6891a;fill-opacity:1;fill-rule:evenodd;stroke:none"
         id="path12" />
      <path
         d="m 630.316,1201.62 33.36,27.77 78.148,-94.48 c 13.844,-16.8 27.297,-25.59 40.36,-26.36 13.066,-2.34 26.129,1.86 39.195,12.6 13.68,10.72 20.91,22.61 21.691,35.69 0.778,14.61 -5.367,29.93 -18.425,45.95 l -78.153,94.48 34.524,27.53 85.152,-103.58 c 16.945,-19.91 24.258,-42.14 21.922,-66.71 -2.332,-26.14 -15.004,-48.37 -38.024,-66.73 -23.793,-19.12 -48.367,-27.52 -73.714,-25.19 -23.016,2.18 -43.7,14 -62.055,35.46 z m 325.661,181.96 c -2.332,9.96 2.253,16.48 13.765,19.6 l 135.768,28.69 8.16,-41.29 -109.4,-23.1 11.42,-49.45 100.32,20.76 7.93,-40.36 -100.08,-20.76 4.67,-20.76 c 2.17,-11.51 5.98,-18.74 11.43,-21.69 4.66,-3.12 12.36,-3.51 23.09,-1.17 l 80.48,17.26 7.93,-41.52 -82.81,-17.27 c -46.81,-9.95 -74.416,6.93 -82.814,50.63 z m 233.513,-226.74 c 77.61,0 151.24,-15.71 220.91,-47.13 67.66,-31.42 125.98,-74.8 174.96,-130.171 l -26.37,-22.859 c -46.02,52.1 -100.53,92.77 -163.51,122.01 -64.4,29.86 -132.67,44.4 -204.83,43.62 -72.78,-0.78 -141.44,-16.1 -205.982,-45.96 -62.051,-29.24 -116.094,-70.29 -162.129,-123.17 l -25.426,23.09 c 49.149,55.99 107.075,99.69 173.789,131.11 69.058,32.19 141.918,48.68 218.588,49.46 z m -59.72,-437.871 c 0,-7.16 -0.43,-14.071 -1.28,-20.758 -5.96,-45.039 -31.89,-79.422 -77.8,-103.109 l 97.98,-175.43 H 1035.06 L 946.176,578.07 H 895.32 V 419.672 H 793.379 V 859.871 H 968.34 c 46.04,0 84.45,-12.832 115.24,-38.492 30.79,-25.82 46.19,-59.949 46.19,-102.41 z m 37.79,-79.078 c 0,17.488 1.28,34.089 3.85,49.8 7.61,47.2 26.71,86.43 57.27,117.688 40.59,41.691 92.62,62.531 156.06,62.531 63.14,0 115.09,-20.84 155.84,-62.531 20.37,-20.84 35.6,-45.258 45.72,-73.25 10.1,-27.84 15.16,-59.25 15.16,-94.238 0,-34.993 -5.06,-66.571 -15.16,-94.719 -10.12,-27.832 -25.35,-52.172 -45.72,-73.012 -20.37,-20.84 -43.64,-36.469 -69.75,-46.89 -25.98,-10.418 -54.67,-15.629 -86.09,-15.629 -31.72,0 -60.65,5.211 -86.78,15.629 -25.97,10.421 -49.06,26.05 -69.28,46.89 -40.75,41.832 -61.12,97.738 -61.12,167.731 z m 134.14,101.468 c -10.58,-12.277 -18.66,-26.898 -24.27,-43.859 -5.29,-16.949 -7.93,-36.148 -7.93,-57.609 0,-21.77 2.64,-41.063 7.93,-57.852 5.61,-16.961 13.69,-31.578 24.27,-43.859 21.77,-24.571 49.45,-36.86 83.04,-36.86 33.44,0 60.97,12.289 82.58,36.86 21.62,24.57 32.44,58.468 32.44,101.711 0,21.461 -2.74,40.66 -8.17,57.609 -5.45,16.961 -13.53,31.582 -24.27,43.859 -21.61,24.422 -49.14,36.629 -82.58,36.629 -33.59,0 -61.27,-12.207 -83.04,-36.629 z m -276.21,-22.39 c 0,32.812 -18.66,49.222 -55.982,49.222 H 895.32 v -98.222 h 74.188 c 37.322,0 55.982,16.34 55.982,49 z M 733.895,591.832 c 0,-29.242 -4.278,-55.133 -12.832,-77.684 -8.86,-22.398 -22.004,-41.519 -39.422,-57.386 -34.684,-31.41 -79.317,-47.121 -133.903,-47.121 -54.433,0 -98.988,15.711 -133.668,47.121 -17.422,15.867 -30.558,34.988 -39.425,57.386 -8.555,22.551 -12.829,48.442 -12.829,77.684 V 859.871 H 463.762 V 590.672 c 0,-14.781 1.863,-27.692 5.593,-38.731 3.422,-11.043 8.79,-20.3 16.098,-27.761 14.774,-15.239 35.539,-22.86 62.285,-22.86 26.907,0 47.746,7.621 62.52,22.86 14.621,15.082 21.93,37.25 21.93,66.492 V 859.871 H 733.895 Z M 856.832,289.961 V 230.949 H 723.629 V 178.93 H 846.34 V 119.91 H 723.629 V 65.5508 H 860.098 V 6.53906 H 658.082 V 289.961 Z m 146.268,0 h 68.12 L 1187.39,6.53906 h -75.35 L 1091.51,59.9609 H 983.035 L 962.273,6.53906 H 886.926 Z M 1270.67,286 c 17.11,6.852 35.69,10.262 55.76,10.262 17.1,0 32.73,-2.024 46.88,-6.051 14.15,-4.211 26.76,-10.512 37.79,-18.91 11.19,-8.242 20.37,-17.719 27.52,-28.449 7.16,-10.883 12.22,-22.942 15.18,-36.161 l -62.52,-18.203 c -1.88,7.473 -4.82,14.16 -8.87,20.071 -3.73,6.062 -8.55,11.273 -14.46,15.621 -5.91,4.359 -12.36,7.629 -19.37,9.8 -6.99,2.18 -14.69,3.27 -23.09,3.27 -20.84,0 -38.96,-8.102 -54.35,-24.27 -7.78,-8.082 -13.61,-17.57 -17.5,-28.449 -3.88,-10.742 -5.83,-22.793 -5.83,-36.16 0,-13.84 2.02,-26.211 6.07,-37.101 3.88,-10.879 9.87,-20.2895 17.96,-28.2192 7.93,-7.9297 16.95,-13.9219 27.06,-17.961 10.1,-4.039 21.31,-6.0703 33.59,-6.0703 25.97,0 46.96,10.1914 62.99,30.5625 v 17.258 h -84.45 v 51.09 h 145.33 V 63.2188 C 1447.8,52.8086 1438.94,43.6289 1429.77,35.6992 1420.44,27.9219 1410.71,21.3789 1400.62,16.1016 1380.54,5.37109 1356.04,0 1327.12,0 c -20.22,0 -38.96,3.42188 -56.21,10.2695 -17.27,6.8321 -32.82,17.0313 -46.66,30.5508 -13.99,13.6914 -24.48,29.4688 -31.5,47.3594 -6.99,17.9493 -10.49,38.0113 -10.49,60.1913 0,44.008 13.99,79.617 41.99,106.84 13.84,13.68 29.31,23.937 46.42,30.789 z M 101.941,768.191 v -80.722 h 190.586 v -91.91 H 101.941 V 511.59 H 313.762 V 419.672 H 0 v 440.199 h 308.863 v -91.68 z M 432.5,289.961 h 65.551 V 65.5508 H 634.75 V 6.53906 H 432.5 Z M 1005.66,118.98 h 63.22 l -31.72,83.5 z m 1284.21,300.692 -31.96,82.808 h -168.66 l -32.2,-82.808 h -116.86 l 180.54,440.199 h 105.45 L 2406.74,419.672 Z M 1871.59,673.48 c 9.81,10.258 14.71,23.481 14.71,39.661 0,16.48 -4.9,29.711 -14.71,39.66 -9.79,10.258 -25.26,15.39 -46.41,15.39 h -67.19 v -109.64 h 67.19 c 21.15,0 36.62,4.98 46.41,14.929 z m 72.09,147.899 c 29.71,-25.82 44.55,-61.891 44.55,-108.238 0,-22.86 -3.65,-43.309 -10.95,-61.352 -7.63,-18.051 -18.82,-33.508 -33.6,-46.418 -29.39,-25.832 -66.72,-38.742 -111.97,-38.742 h -73.72 V 419.672 h -101.95 v 440.199 h 175.67 c 45.25,0 82.58,-12.832 111.97,-38.492 z M 1483.89,289.961 h 65.78 v -173.32 c 0,-9.481 1.16,-17.8012 3.5,-24.9613 2.17,-7.1484 5.68,-13.1406 10.49,-17.9688 9.49,-9.789 22.87,-14.6914 40.14,-14.6914 17.25,0 30.62,4.9024 40.12,14.6914 9.49,9.8008 14.22,24.1211 14.22,42.9301 v 173.32 h 65.33 V 117.34 c 0,-18.8205 -2.73,-35.4494 -8.17,-49.9103 -5.76,-14.4805 -14.24,-26.75 -25.43,-36.8711 C 1667.47,10.1914 1638.78,0 1603.8,0 c -35.16,0 -63.93,10.1914 -86.32,30.5586 -11.2,10.1211 -19.6,22.3906 -25.19,36.8711 -5.6,14.4609 -8.4,31.0898 -8.4,49.9103 z m 334.99,-59.012 V 178.93 h 122.69 V 119.91 H 1818.88 V 65.5508 h 136.46 V 6.53906 H 1753.33 V 289.961 h 198.75 v -59.012 z m 354.58,492.91 -49.22,-129.461 h 98.45 z m -323.56,1077.291 -0.93,-0.46 h -18.67 v -57.16 l -0.46,-0.93 -0.47,-0.47 h -5.12 l -0.94,0.47 -0.7,58.09 h -19.36 v 6.06 h 46.65 l 0.46,-0.94 v -3.73 z m 17.49,5.6 1.41,-2.57 20.06,-47.12 h 0.47 l 20.52,50.15 2.56,0.47 h 2.58 l 3.26,-0.93 0.47,-3.04 0.47,-59.48 -0.47,-1.17 h -0.47 l -4.67,-0.46 -1.17,0.46 -0.46,52.49 h -0.46 l -17.03,-42.23 -1.4,-2.55 -2.56,-0.47 h -2.58 l -3.03,0.47 -19.13,43.62 v -51.79 h -6.53 l -0.7,60.65 0.7,3.03 3.5,0.93 h 2.1 z m -400.53,-418.5 -10.27,-40.37 -79.55,20.77 c -10.72,2.33 -18.34,1.95 -22.85,-1.17 -5.45,-2.33 -9.73,-9.25 -12.83,-20.76 l -5.61,-20.76 98.92,-25.19 -10.27,-40.37 -97.97,26.61 -22.87,-89.82 -27.75,5.6 c -9.96,3.88 -13.77,10.81 -11.44,20.76 l 35.7,138.1 c 5.28,22.24 16.01,37.25 32.19,45.02 14.62,6.85 32.26,7.54 52.95,2.1 z m 165.86,-168.2 -139.27,-90.74 -41.53,22.86 193.39,126.67 c 9.18,6.07 17.57,6.07 25.2,0 l 8.17,-7 c 8.39,-6.06 11.04,-14.07 7.93,-24.02 l -63.22,-222.09 -36.86,32.19 11.66,43.63 -42.69,32.19 36.86,24.26 18.43,-13.77 z m 193.15,36.86 -25.19,-24.03 c -79.01,80.56 -170.69,142.69 -275.04,186.39 -107.46,46.04 -219.91,68.66 -337.32,67.89 -117.26,-0.78 -229.625,-24.58 -337.086,-71.38 -102.796,-44.49 -193.699,-107.39 -272.703,-188.73 l -25.426,23.1 c 82.114,85.07 176.899,151.01 284.368,197.81 111.195,48.37 228.147,72.94 350.847,73.72 122.86,0.78 240.28,-22.62 352.26,-70.21 107.46,-46.04 202.55,-110.89 285.29,-194.56 z m -639.3,842.96 c -2.26,9.25 -4.56,18.46 -6.88,27.63 84.35,-154.22 167.79,-277.04 250.31,-368.46 -55.54,-16.06 -113.62,-25.97 -174.27,-29.74 -17.73,130.56 -40.79,254.08 -69.16,370.57 z m 117.92,1330.97 265.95,-152.33 c -4.65,-9.66 -9.24,-19.3 -13.77,-28.92 -175.29,-375.44 -240.07,-737.95 -194.32,-1087.55 -112.46,404.15 -138.24,792.32 -77.34,1164.53 5.76,34.89 12.25,69.66 19.48,104.27"
         style="fill:#040606;fill-opacity:1;fill-rule:evenodd;stroke:none"
         id="path14" />
      <path
         d="m 1143.65,2089.37 c 26.87,-115.45 43.2,-236.01 48.99,-361.7 -70.12,0.57 -137,9 -200.62,25.3 55.84,200.3 69.02,422.73 39.54,667.31 44.11,-96.87 79.3,-198.08 105.56,-303.62 2.23,-9.07 4.41,-18.17 6.53,-27.29 z M 823.707,3239.55 c -3.156,14.68 -6.266,29.46 -9.332,44.32 L 1220.99,3446 c -4.52,-38.91 -8.48,-77.39 -11.9,-115.47 -40.32,-450.83 -3.57,-845.22 110.22,-1183.19 44.3,-131.62 100.29,-254.67 167.96,-369.16 l -0.58,-0.35 c -310.57,364.52 -531.557,851.76 -662.983,1461.72"
         style="fill:#5d6267;fill-opacity:1;fill-rule:evenodd;stroke:none"
         id="path16" />
    </g>
  </g>
</svg>
