<?xml version="1.0" encoding="UTF-8" standalone="no"?>
<svg clip-rule="evenodd" fill-rule="evenodd" viewBox="0 0 560 400" version="1.1" id="svg2"
   xmlns="http://www.w3.org/2000/svg" xmlns:svg="http://www.w3.org/2000/svg">
   <path
      d="m 499.82912,200.048 c 0,-121.37242 -98.4087,-219.78112 -219.78112,-219.78112 -121.37242,0 -219.78112,98.4087 -219.78112,219.78112 0,109.68945 80.3595,200.61821 185.4437,217.12444 V 263.59369 H 189.89157 V 200.048 h 55.81901 v -48.43202 c 0,-55.0771 32.82318,-85.52076 83.01618,-85.52076 24.04532,0 49.20435,4.29598 49.20435,4.29598 v 54.08845 h -27.72445 c -27.29012,0 -35.82124,16.93718 -35.82124,34.33742 v 41.22924 h 60.94816 l -9.73609,63.54569 h -51.21376 v 153.57875 c 105.0842,-16.47581 185.4437,-107.40457 185.4437,-217.12444 z"
      fill="#fefefe" id="path1" style="stroke-width:1.69" />
   <path
      d="m 365.59918,263.592 9.73609,-63.54569 h -60.94816 v -41.22924 c 0,-17.36982 8.49901,-34.33742 35.82124,-34.33742 H 377.9328 V 70.3912 c 0,0 -25.15734,-4.29598 -49.20435,-4.29598 -50.193,0 -83.01618,30.41324 -83.01618,85.52076 V 200.048 h -55.81901 v 63.54569 h 55.81901 v 153.57875 c 11.1878,1.75929 22.65445,2.65668 34.33742,2.65668 11.68297,0 23.14962,-0.92781 34.33742,-2.65668 V 263.59369 h 51.21376 z"
      fill="#1977f3" id="path2" style="stroke-width:1.69" />
</svg>