<svg xmlns="http://www.w3.org/2000/svg" version="1.1" xmlns:xlink="http://www.w3.org/1999/xlink" width="512" height="512" x="0" y="0" viewBox="0 0 473.677 473.677" style="enable-background:new 0 0 512 512" xml:space="preserve" class=""><g><path d="M236.835 0v473.677c130.807 0 236.842-106.036 236.842-236.835C473.677 106.028 367.641 0 236.835 0z" style="" fill="#252f6b" data-original="#252f6b"></path><path d="M236.835 0C106.036 0 0 106.032 0 236.838c0 130.799 106.036 236.835 236.835 236.835 130.806 0 130.806-473.673 0-473.673z" style="" fill="#273375" data-original="#273375"></path><path d="m162.425 363.057 15.971-19.91-24.673 4.469-8.56-23.9-9.304 23.9-25.19-4.469 16.009 19.472-16.622 19.45 25.335-3.979 8.545 23.406 9.308-23.395 25.84 4.618zM351.206 380.644l9.057-11.283-13.986 2.532-4.85-13.541-5.273 13.541-14.274-2.532 9.072 11.028-9.416 11.028 14.353-2.258 4.842 13.257 5.273-13.25 14.644 2.618zM351.206 131.338l9.057-11.286-13.986 2.535-4.85-13.541-5.273 13.541-14.274-2.535 9.072 11.035-9.416 11.021 14.353-2.255 4.842 13.264 5.273-13.257 14.644 2.614zM409.797 195.83l9.05-11.286-13.978 2.536-4.851-13.541-5.272 13.541-14.282-2.536 9.072 11.036-9.416 11.024 14.353-2.259 4.842 13.265 5.273-13.257 14.644 2.614zM300.523 224.502l9.058-11.283-13.986 2.536-4.851-13.541-5.272 13.541-14.271-2.536 9.069 11.028-9.413 11.028 14.353-2.255 4.843 13.253 5.272-13.245 14.645 2.614z" style="" fill="#f3f4f5" data-original="#f3f4f5"></path><path d="M49.74 91.713a241.88 241.88 0 0 0-10.62 14.775h25.388L49.74 91.713zM172.043 236.838h22.815l-22.815-22.815zM96.417 46.135c-5.434 4.009-10.665 8.261-15.732 12.707l15.732 15.725V46.135zM73.595 236.838h22.822v-22.822zM236.835 0c-22.475 0-44.187 3.197-64.792 9.05v65.517l64.799-64.796V0h-.007zM236.842 215.003v-32.882H203.96zM9.772 236.838 64.5 182.121H6.428C2.266 199.693 0 217.998 0 236.838h9.772zM203.938 106.488h32.904V73.591z" style="" fill="#29337a" data-original="#29337a"></path><path d="M236.842 221.91v-6.907l-32.882-32.882h32.882v-11.776h-51.565zM64.508 106.488H39.12a238.13 238.13 0 0 0-7.259 11.765h49.875L52.133 88.658a213.744 213.744 0 0 0-2.397 3.051l14.772 14.779zM96.417 214.016v22.822h11.769v-40.05l-40.047 40.05h5.456zM172.043 9.046a238.87 238.87 0 0 0-11.765 3.672v79.077l76.564-76.56V9.779l-64.799 64.784V9.046zM96.002 182.121l.415-.415 11.357-11.357H9.532a233.524 233.524 0 0 0-3.104 11.772H64.5L9.772 236.838h31.51l54.72-54.717zM9.772 236.838 64.5 182.121 9.772 236.838zM236.842 118.257v-11.769h-32.904l32.904-32.897V42.089l-76.171 76.168z" style="" fill="#ffffff" data-original="#ffffff" class=""></path><path d="m236.842 73.591-32.905 32.897 32.905-32.897zM96.417 74.571 80.685 58.846a237.146 237.146 0 0 0-16.032 15.471l31.764 31.764.337.344 11.432 11.432V38.028c-4.001 2.599-7.939 5.28-11.765 8.107v28.436h-.004zM172.043 214.023l22.815 22.815h30.059L160.274 172.2v64.638h11.769z" style="" fill="#ffffff" data-original="#ffffff" class=""></path><path d="m96.417 106.081.337.344-.337-.344zM197.042 182.121l-11.765-11.772h51.565v-52.092h-76.171l-.393.4v-.4h.393l76.171-76.164V15.235l-76.568 76.564V12.722a235.984 235.984 0 0 0-52.092 25.309v79.825l.408.4h-.408v-.4L96.75 106.425l.067.067h-.4v-.408L64.653 74.32a239.4 239.4 0 0 0-12.52 14.345l29.602 29.595H31.861a235.063 235.063 0 0 0-22.329 52.092h98.242l.408-.415v.415h-.408L96.417 181.71v.415h-.415l-54.721 54.714h26.858l40.047-40.051v40.051h52.092V172.2l64.639 64.639h8.889c1.013-1.058 2.046-2.109 3.04-3.197V221.91l-39.804-39.789zM160.274 91.799l76.568-76.564z" style="" fill="#d32030" data-original="#d32030"></path><path d="M96.417 182.121v-.419l-.415.419zM108.186 169.93l-.411.415h.411zM160.274 118.657l.397-.4h-.397zM96.417 106.488h.404l-.067-.063-.337-.344zM108.593 118.257l-.407-.404v.404z" style="" fill="#d32030" data-original="#d32030"></path></g></svg>