<svg width="1610" height="2500" xmlns="http://www.w3.org/2000/svg" xmlns:xlink="http://www.w3.org/1999/xlink"><defs><symbol id="a" viewBox="0 0 612 792" xmlns="http://www.w3.org/2000/svg" xmlns:xlink="http://www.w3.org/1999/xlink"><g fill-rule="evenodd"><path d="M245.91 361.39c16.12 0 29.91 12.97 29.91 29.85 0 16.88-13.79 29.85-29.91 29.85S216 408.22 216 391.24c0-16.98 13.79-29.85 29.91-29.85zm.15 17.95c6.46 0 11.99 5.16 11.99 11.9s-5.53 11.91-11.99 11.91-11.98-5.13-11.98-11.91 5.52-11.9 11.98-11.9M306.01 361.39c16.12 0 29.91 12.97 29.91 29.85 0 16.88-13.79 29.85-29.91 29.85s-29.92-12.87-29.92-29.85c0-16.98 13.8-29.85 29.92-29.85zm.15 17.95c6.46 0 11.98 5.16 11.98 11.9s-5.52 11.91-11.98 11.91c-6.46 0-11.99-5.13-11.99-11.91s5.53-11.9 11.99-11.9M366.09 361.39c16.12 0 29.91 12.97 29.91 29.85 0 16.88-13.79 29.85-29.91 29.85s-29.91-12.87-29.91-29.85c0-16.98 13.79-29.85 29.91-29.85zm.15 17.95c6.46 0 11.98 5.16 11.98 11.9s-5.52 11.91-11.98 11.91c-6.46 0-11.99-5.13-11.99-11.91s5.53-11.9 11.99-11.9" fill="#FF761F"/><path d="M245.91 319.61c16.12 0 29.91 12.98 29.91 29.87s-13.79 29.86-29.91 29.86S216 366.47 216 349.48c0-16.99 13.79-29.87 29.91-29.87zm.15 17.95c6.46 0 11.99 5.18 11.99 11.92s-5.53 11.91-11.99 11.91-11.98-5.13-11.98-11.91 5.52-11.92 11.98-11.92M306.01 319.61c16.12 0 29.91 12.98 29.91 29.87s-13.79 29.86-29.91 29.86-29.92-12.87-29.92-29.86c0-16.99 13.8-29.87 29.92-29.87zm.15 17.95c6.46 0 11.98 5.18 11.98 11.92s-5.52 11.91-11.98 11.91c-6.46 0-11.99-5.13-11.99-11.91s5.53-11.92 11.99-11.92M366.09 319.61c16.12 0 29.91 12.98 29.91 29.87s-13.79 29.86-29.91 29.86-29.91-12.87-29.91-29.86c0-16.99 13.79-29.87 29.91-29.87zm.15 17.95c6.46 0 11.98 5.18 11.98 11.92s-5.52 11.91-11.98 11.91c-6.46 0-11.99-5.13-11.99-11.91s5.53-11.92 11.99-11.92" fill="#FF761F"/><path d="M267.29 370.37c-5.49 5.58-13.13 8.97-21.38 8.97-8.27 0-15.92-3.38-21.42-8.97 5.5-5.59 13.15-8.98 21.42-8.98 8.25 0 15.89 3.4 21.38 8.98M327.39 370.37c-5.5 5.58-13.14 8.97-21.38 8.97-8.27 0-15.92-3.38-21.42-8.97 5.5-5.59 13.15-8.98 21.42-8.98 8.24 0 15.88 3.4 21.38 8.98M387.47 370.37c-5.5 5.58-13.13 8.97-21.38 8.97-8.27 0-15.93-3.38-21.42-8.97 5.49-5.59 13.15-8.98 21.42-8.98 8.25 0 15.88 3.4 21.38 8.98M357.77 434.84h5.03v5.9l.03-.04c1.72-3.54 4.9-6.28 9.46-6.28v4.83c-5.43-.14-9.43 3.93-9.49 8.96v12.76h-5.03v-26.13M293.62 434.84h5.02v4.9c1.75-3.24 4.79-5.34 9.4-5.34 7.9 0 13.23 5.85 13.23 13.51 0 7.77-5.23 13.66-13.18 13.66-4.29 0-7.55-2.07-9.45-5.4v16.22h-5.02v-37.55zm14.07 4.32c5 0 8.43 3.87 8.43 8.8 0 4.93-3.51 8.75-8.43 8.75-5.12 0-8.49-3.9-8.49-8.8s3.49-8.75 8.49-8.75M376.19 434.84h3.52v-7.64h5.03v7.64h7.6v4.75h-7.6v13.35c0 5.12 4.73 3.88 7.6 3.3v4.17c-1.95.71-3.32 1.02-5.47 1.02-3.37 0-7.16-1.5-7.16-7.54v-14.3h-3.52v-4.75M338.71 434.3c8 0 13.59 5.95 13.59 13.61 0 7.67-5.64 13.61-13.59 13.61s-13.58-5.99-13.58-13.61c0-7.61 5.58-13.61 13.58-13.61zm0 4.86c5 0 8.49 3.82 8.49 8.75s-3.52 8.75-8.49 8.75c-4.97 0-8.49-3.85-8.49-8.75s3.49-8.75 8.49-8.75M269.55 441.38c0-3.86 3.82-7.11 9.36-7.11 3.51 0 6.45 1.42 8.41 3l-1.39 4.02c-2.25-1.53-5.04-2.65-7.06-2.65-3.08 0-4.19 1.53-4.19 2.65 0 2.06 1.9 2.82 3.61 3.63 2.07.99 4.11 1.68 6.09 2.82 2.73 1.58 4.15 3.19 4.15 6.57 0 2.06-1.38 4.46-3.46 5.76-1.66 1.05-3.95 1.72-6.12 1.72-5.32 0-9.26-2.05-11.56-4.35l2.1-3.74c2.12 1.95 5.29 3.78 8.83 3.78 2.73 0 5.26-.95 5.26-3.44 0-1.78-2.04-2.89-3.79-3.57-1.97-.8-3.67-1.36-5.58-2.39-3.22-1.74-4.66-3.43-4.66-6.7" fill="#FF6404"/></g></symbol></defs><g class="layer"><use transform="translate(-199.361 -155.925)" xlink:href="#a"/></g></svg>