<svg xmlns="http://www.w3.org/2000/svg" version="1.1" xmlns:xlink="http://www.w3.org/1999/xlink" width="512" height="512" x="0" y="0" viewBox="0 0 64 64" style="enable-background:new 0 0 512 512" xml:space="preserve" class=""><g><path d="M31.97 4C1.93 4.513-6.703 44.374 20.11 57.383c10.375 5.196 24.504 2.379 32.083-6.017C69.137 33.93 56.546 3.93 31.97 4Zm23.873 17.695a25.796 25.796 0 0 1 1.944 7.188 1.02 1.02 0 0 0-1.019.728l-1.525 5.415-1.812-5.583a1 1 0 0 0-.926-.69l-5.675-.148 4.507-3.451a1.002 1.002 0 0 0 .343-1.104l-1.82-5.588 4.42 3.482a1 1 0 0 0 1.229.008ZM38.236 6.77a26.111 26.111 0 0 1 16.72 13.085c-.002.182-6.432-5.042-6.45-5.005a1.007 1.007 0 0 0-1.57 1.096l2.622 8.05-5.924 4.538H35.51l-2.48-7.025 2.478-7.023h8.466a1.006 1.006 0 0 0 .556-1.833l-6.776-4.529Zm-2.624 28.057 1.832 5.188-4.918-3.288a1.001 1.001 0 0 0-1.112 0l-4.919 3.288 1.832-5.188a1.002 1.002 0 0 0-.388-1.165l-4.677-3.127h5.873a1.001 1.001 0 0 0 .944-.668l1.89-5.354 1.891 5.354a1.001 1.001 0 0 0 .944.668h5.874L36 33.66a1.002 1.002 0 0 0-.388 1.165Zm.645-28.465-.648 1.826a1 1 0 0 0 .387 1.167l4.683 3.13H34.8a1.002 1.002 0 0 0-.944.667l-1.887 5.35-1.888-5.35a1.002 1.002 0 0 0-.944-.667h-5.877l4.682-3.13a1 1 0 0 0 .387-1.167l-.648-1.826a25.916 25.916 0 0 1 8.575 0Zm-10.554.408.48 1.354-6.775 4.53a1.006 1.006 0 0 0 .556 1.832h8.466l2.478 7.023-2.48 7.025h-8.122l-5.924-4.538 2.612-8.051a1.006 1.006 0 0 0-1.571-1.095l-6.401 5.042A25.763 25.763 0 0 1 25.703 6.769ZM8.094 21.7a1.158 1.158 0 0 0 1.555.243l4.426-3.486-1.816 5.593a1.001 1.001 0 0 0 .343 1.103l4.502 3.448-5.668.14a1.001 1.001 0 0 0-.927.69l-1.822 5.592-1.526-5.414a.986.986 0 0 0-.99-.728 24.645 24.645 0 0 1 1.923-7.181Zm1.097 20.593 1.95 5.284a25.87 25.87 0 0 1-5.164-14.794l1.679 5.954a1.007 1.007 0 0 0 1.915.038l2.621-8.051 7.477-.186 6.513 4.353-2.465 6.978-6.15 4.235-6.85-4.967a1.006 1.006 0 0 0-1.526 1.156ZM19.9 55.044a26.133 26.133 0 0 1-5.84-4.194.994.994 0 0 0 .1-.875l-1.951-5.284 4.757 3.449a1.002 1.002 0 0 0 1.154.014l4.67-3.216-1.614 5.439a1.002 1.002 0 0 0 .37 1.094l4.756 3.454-5.629-.22a.993.993 0 0 0-.773.34Zm4.32 1.802 5.3.207a1.006 1.006 0 0 0 .626-1.809l-6.85-4.976 2.115-7.122 6.559-4.385 6.515 4.356 2.138 7.18-6.85 4.967a1.007 1.007 0 0 0 .626 1.81l5.224-.2a26.193 26.193 0 0 1-15.403-.028Zm25.539-6.851a.994.994 0 0 0 .1.875A26.133 26.133 0 0 1 44 55.064a.996.996 0 0 0-.764-.33l-5.62.214 4.755-3.447a1 1 0 0 0 .371-1.095l-1.62-5.445 4.676 3.222a1 1 0 0 0 1.156-.014l4.754-3.453Zm4.634-8.825a1 1 0 0 0-1.192-.012l-6.85 4.976-6.11-4.21-2.484-7.032 6.512-4.352 7.477.194 2.613 8.05a1.006 1.006 0 0 0 1.915-.037l1.689-5.996a25.87 25.87 0 0 1-5.19 14.859l1.955-5.296a1 1 0 0 0-.335-1.144Z" fill="#000000" opacity="1" data-original="#000000" class=""></path></g></svg>