<svg xmlns="http://www.w3.org/2000/svg" version="1.1" xmlns:xlink="http://www.w3.org/1999/xlink" width="512" height="512" x="0" y="0" viewBox="0 0 60 60" style="enable-background:new 0 0 512 512" xml:space="preserve" class=""><g><path fill="#000000" d="M30 1C14.011 1 1 14.011 1 30s13.011 29 29 29 29-13.011 29-29S45.989 1 30 1zm21.943 14.776c1.764 2.646 2.977 5.623 3.639 8.821-2.867-.11-5.734.441-8.27 1.654-.882-1.764-1.875-3.418-2.867-5.072zm-1.654-2.316-7.498 5.513c-1.213-1.543-2.426-2.977-3.75-4.3 1.875-2.095 3.309-4.52 4.08-7.278 2.757 1.544 5.183 3.64 7.168 6.065zM30 3.867c3.749 0 7.278.772 10.585 2.205-.661 2.426-1.874 4.742-3.528 6.616-3.749-3.418-8.16-6.175-13.011-8.16 1.874-.44 3.859-.661 5.954-.661zM19.745 5.962a43.509 43.509 0 0 1 15.107 8.6c-2.647 1.986-5.844 2.978-9.042 2.978-7.388 0-14.445.992-20.179 2.757C8.278 13.9 13.35 8.608 19.745 5.962zM8.057 44.224c-2.646-4.08-4.19-8.931-4.19-14.224 0-2.205.22-4.3.772-6.285 5.734-2.095 13.232-3.308 21.281-3.308 4.08 0 7.94-1.434 11.137-3.86 1.323 1.324 2.426 2.647 3.529 4.08zm20.069 11.91A26.368 26.368 0 0 1 9.71 46.54l32.418-23.707a49.562 49.562 0 0 1 2.647 4.63c-3.308 2.206-5.844 5.514-7.168 9.374-2.315 7.718-5.733 14.444-9.482 19.296zm21.17-8.381c-4.41 4.852-10.695 8.05-17.642 8.38 3.418-4.852 6.506-11.247 8.821-18.304.993-3.088 2.977-5.844 5.624-7.719 2.095 5.072 3.308 10.696 3.308 16.43-.11.33-.11.772-.11 1.213zm-.882-19.076c2.316-1.103 4.962-1.544 7.609-1.323.11.882.11 1.764.11 2.646a25.875 25.875 0 0 1-4.19 14.114 43.224 43.224 0 0 0-3.529-15.437z" opacity="1" data-original="#000000" class=""></path></g></svg>