<svg xmlns="http://www.w3.org/2000/svg" version="1.1" xmlns:xlink="http://www.w3.org/1999/xlink" width="512" height="512" x="0" y="0" viewBox="0 0 60 60" style="enable-background:new 0 0 512 512" xml:space="preserve" class=""><g><path d="M19 55v2a3 3 0 0 0 3 3h20a3 3 0 0 0 3-3V42.284C46.066 40.531 52 30.22 52 18c0-2.248-.094-4.375-.279-6.322A12.893 12.893 0 0 0 38.788 0H28a13.036 13.036 0 0 0-11.978 7.937A4.816 4.816 0 0 0 13.15 7a4.889 4.889 0 0 0-4.8 4.188A44.552 44.552 0 0 0 8 17c0 16.445 8.837 23.934 11 25.521zm24 2a1 1 0 0 1-1 1H22a1 1 0 0 1-1-1v-1h15a3 3 0 0 0 3-3v-5a3 3 0 0 0-3-3H21v-2h22zm-22-3v-7h15a1 1 0 0 1 1 1v5a1 1 0 0 1-1 1zM10 17a42.616 42.616 0 0 1 .332-5.555A2.861 2.861 0 0 1 13.15 9a2.8 2.8 0 0 1 2.19 1.064A13.08 13.08 0 0 0 15 13a29.739 29.739 0 0 0 .6 6.209 1 1 0 1 0 1.955-.418A27.87 27.87 0 0 1 17 13 10.99 10.99 0 0 1 28 2h10.788a10.9 10.9 0 0 1 10.942 9.866c.179 1.885.27 3.949.27 6.134 0 11.083-5.288 20.811-6.566 23H20.316C18.809 39.9 10 32.8 10 17z" fill="#000000" opacity="1" data-original="#000000" class=""></path><path d="M26 49h-2a1 1 0 0 0 0 2h2a1 1 0 0 0 0-2zM32 49h-2a1 1 0 0 0 0 2h2a1 1 0 0 0 0-2zM38.788 6a6.918 6.918 0 0 1 6.96 6.243 1 1 0 0 0 .994.906h.1a1 1 0 0 0 .9-1.089A8.907 8.907 0 0 0 38.788 4a1 1 0 0 0 0 2z" fill="#000000" opacity="1" data-original="#000000" class=""></path></g></svg>