<svg xmlns="http://www.w3.org/2000/svg" version="1.1" xmlns:xlink="http://www.w3.org/1999/xlink" width="512" height="512" x="0" y="0" viewBox="0 0 53 53" style="enable-background:new 0 0 512 512" xml:space="preserve" class=""><g><circle cx="26.5" cy="26.5" r="26.5" fill="#14439e" opacity="1" data-original="#14439e" class=""></circle><g fill="#e6d000"><path d="m26.37 7.86.71 2.17h2.29l-1.85 1.35.7 2.17-1.85-1.34-1.85 1.34.71-2.17-1.85-1.35h2.29zM26.37 39.45l.71 2.17h2.29l-1.85 1.35.7 2.17-1.85-1.34-1.85 1.34.71-2.17-1.85-1.35h2.29zM42.33 23.94l.7 2.17h2.29l-1.85 1.35.71 2.17-1.85-1.34-1.85 1.34.7-2.17-1.85-1.35h2.29zM10.67 23.94l.71 2.17h2.29l-1.85 1.35.7 2.17-1.85-1.34-1.85 1.34.71-2.17-1.85-1.35h2.29zM12.83 15.93l.71 2.18h2.29l-1.85 1.34.7 2.17-1.85-1.34-1.85 1.34.71-2.17-1.85-1.34h2.29zM12.83 31.95l.71 2.17h2.29l-1.85 1.35.7 2.17-1.85-1.34-1.85 1.34.71-2.17-1.85-1.35h2.29zM39.78 15.93l.71 2.18h2.29l-1.85 1.34.7 2.17-1.85-1.34-1.85 1.34.71-2.17-1.85-1.34h2.29zM34.25 10.24l.71 2.17h2.29l-1.85 1.35.7 2.17-1.85-1.34-1.85 1.34.71-2.17-1.85-1.35h2.29zM34.25 36.81l.71 2.17h2.29l-1.85 1.34.7 2.18-1.85-1.35-1.85 1.35.71-2.18-1.85-1.34h2.29zM18.52 10.24l.71 2.17h2.29l-1.85 1.35.7 2.17-1.85-1.34-1.85 1.34.71-2.17-1.85-1.35h2.29zM18.52 36.81l.71 2.17h2.29l-1.85 1.34.7 2.18-1.85-1.35-1.85 1.35.71-2.18-1.85-1.34h2.29zM39.78 31.95l.71 2.17h2.29l-1.85 1.35.7 2.17-1.85-1.34-1.85 1.34.71-2.17-1.85-1.35h2.29z" fill="#e6d000" opacity="1" data-original="#e6d000"></path></g></g></svg>